<?xml version="1.0" standalone="no"?>
<!DOCTYPE svg PUBLIC "-//W3C//DTD SVG 20010904//EN"
 "http://www.w3.org/TR/2001/REC-SVG-20010904/DTD/svg10.dtd">
<svg version="1.0" xmlns="http://www.w3.org/2000/svg"
 width="1920.000000pt" height="1080.000000pt" viewBox="0 0 1920.000000 1080.000000"
 preserveAspectRatio="xMidYMid meet">
<metadata>
Created by potrace 1.16, written by Peter Selinger 2001-2019
</metadata>
<g transform="translate(0.000000,1080.000000) scale(0.100000,-0.100000)"
fill="#000000" stroke="none">
<path d="M13600 10765 l0 -35 80 0 80 0 0 -45 0 -45 80 0 80 0 0 -40 0 -40
160 0 160 0 0 -40 0 -40 83 -2 c144 -3 152 -4 164 -11 16 -10 68 23 88 55 9
15 24 28 33 28 13 0 14 2 4 9 -11 7 -10 10 3 15 9 3 25 6 35 6 9 0 38 12 64
26 39 22 51 24 75 16 16 -6 32 -8 34 -5 6 5 11 2 74 -52 36 -32 48 -36 90 -34
26 1 60 -2 76 -6 15 -4 27 -3 27 1 0 20 58 75 100 96 26 13 51 35 58 51 12 25
11 31 -5 55 -10 15 -22 36 -28 47 -10 20 -22 20 -813 23 l-802 2 0 -35z"/>
<path d="M18948 9560 c-10 -13 -18 -38 -18 -54 0 -16 -5 -46 -12 -67 -13 -45
-1 -78 38 -104 27 -17 84 -10 84 11 0 8 5 14 10 14 13 0 13 67 0 72 -6 2 -13
21 -17 43 -7 43 -23 65 -47 65 -8 0 -16 10 -18 23 l-3 22 -17 -25z"/>
<path d="M19111 9242 c-2 -21 -34 -49 -63 -56 -16 -3 -28 -11 -28 -16 0 -6 -9
-10 -20 -10 -11 0 -20 4 -20 9 0 25 -62 -5 -115 -55 -16 -16 -38 -27 -47 -26
-10 2 -18 -2 -18 -7 0 -6 -6 -11 -14 -11 -8 0 -16 -6 -18 -12 -3 -8 -24 -13
-56 -13 -29 0 -52 -3 -52 -7 0 -5 -20 -8 -45 -8 -35 0 -43 -3 -39 -15 4 -11
21 -15 55 -15 55 0 59 -4 27 -31 l-21 -19 26 0 c14 0 30 -7 35 -15 5 -10 15
-13 26 -9 14 5 15 9 5 15 -22 13 -6 18 39 12 35 -5 42 -9 42 -28 0 -13 7 -25
15 -29 11 -4 15 2 15 23 0 24 5 30 31 35 17 3 44 6 60 6 27 0 29 -3 29 -40 0
-39 -1 -40 -35 -40 -19 0 -35 -4 -35 -9 0 -15 42 -41 67 -41 24 0 32 -25 11
-33 -10 -4 -10 -6 -1 -6 7 -1 20 -17 29 -36 19 -42 26 -43 62 -10 15 14 39 25
54 25 23 0 28 -4 28 -25 0 -14 5 -25 10 -25 6 0 10 5 10 10 0 6 9 10 20 10 19
0 20 7 20 118 0 97 -3 119 -15 119 -8 0 -12 -4 -10 -8 11 -18 -7 -35 -35 -33
-17 1 -33 -3 -37 -9 -3 -6 -1 -7 5 -3 15 9 15 1 2 -46 -17 -59 -70 -80 -70
-28 0 28 -3 30 -37 31 -31 2 -33 3 -10 6 23 4 27 9 27 35 0 17 -6 36 -14 42
-8 6 -16 31 -18 56 -3 44 -2 45 27 46 38 2 66 14 59 25 -3 5 -1 9 5 9 6 0 13
11 17 25 3 13 15 27 25 30 13 4 19 16 19 36 0 16 -4 29 -9 29 -5 0 -12 8 -14
18 -3 9 -5 11 -6 4z"/>
<path d="M9679 5623 c-1 -10 -1 -22 0 -26 3 -16 -28 -18 -58 -3 -31 17 -70 20
-108 10 -21 -6 -23 -12 -23 -68 0 -35 2 -65 5 -68 3 -3 23 -1 44 4 56 14 117
-4 125 -38 8 -30 -8 -54 -36 -54 -27 0 -78 -28 -78 -43 0 -25 40 -77 64 -83
23 -5 23 -7 9 -35 -12 -24 -21 -29 -51 -30 -20 0 -45 -4 -55 -8 -26 -10 -93
-1 -76 10 11 7 10 9 -3 9 -13 0 -18 -8 -18 -30 0 -16 5 -30 10 -30 6 0 10 -12
10 -27 1 -28 1 -28 15 6 10 22 20 31 30 27 8 -3 19 2 24 12 8 14 10 13 16 -10
9 -35 -23 -119 -47 -126 -10 -2 -18 -10 -18 -17 0 -8 -3 -22 -6 -32 -5 -15 -2
-14 14 5 11 12 24 22 29 22 10 0 77 -60 72 -65 -2 -1 -34 0 -71 4 -37 4 -76 3
-88 -1 -27 -10 -37 14 -18 45 14 23 13 57 -2 57 -13 0 -25 -149 -20 -245 l2
-50 8 48 c5 27 11 52 14 55 3 3 60 5 126 5 66 0 120 3 120 8 0 5 -9 14 -20 21
-12 8 -20 24 -20 40 0 16 -5 28 -12 28 -7 0 -29 17 -50 37 l-38 37 22 23 c14
15 21 34 20 51 -1 16 5 37 13 48 13 16 16 17 25 4 8 -12 16 -8 47 26 28 31 48
43 75 47 20 2 44 12 53 21 9 9 24 16 34 16 20 0 41 39 41 75 0 31 -24 44 -101
54 -4 1 -10 36 -13 79 -11 130 -17 172 -27 172 -5 0 -10 -8 -10 -17z"/>
<path d="M10470 5261 c0 -33 -1 -33 -37 -28 -21 3 -50 9 -65 12 -15 4 -39 4
-53 1 -22 -6 -25 -12 -25 -49 0 -52 8 -65 40 -65 14 0 49 -3 78 -7 l52 -8 0
-41 c0 -23 -7 -53 -14 -68 -10 -18 -11 -28 -4 -28 6 0 -1 -9 -15 -20 -28 -22
-52 -27 -41 -7 4 7 3 9 -2 4 -5 -5 -10 -13 -10 -18 -3 -22 -5 -23 -12 -12 -5
8 -14 6 -32 -8 -23 -18 -23 -19 -2 -9 35 17 26 3 -16 -25 -22 -14 -46 -23 -54
-20 -8 3 -21 -2 -29 -12 -13 -17 -13 -17 5 -3 18 14 19 13 13 -2 -4 -12 0 -21
13 -28 25 -13 30 -13 30 3 0 8 9 22 20 32 23 21 25 17 34 -65 3 -30 9 -65 12
-78 5 -19 3 -22 -16 -20 -13 2 -25 -2 -27 -8 -2 -7 17 -11 59 -10 70 1 69 3
54 -81 -8 -42 -7 -43 21 -42 18 1 21 3 10 6 -10 3 -17 12 -15 21 5 25 32 21
36 -5 2 -13 8 -23 13 -23 6 0 8 4 5 9 -4 5 -2 20 3 33 9 20 10 18 11 -17 2
-39 2 -39 10 -11 5 16 8 50 6 75 -3 38 -8 47 -26 49 -35 6 -60 73 -60 163 0
79 2 83 56 132 l30 27 -8 -67 c-9 -71 -4 -159 14 -230 9 -37 15 -44 47 -53 20
-5 42 -10 49 -10 6 0 12 -7 12 -16 0 -13 3 -14 15 -4 13 10 12 17 -5 49 -26
52 -50 150 -50 207 0 93 42 202 95 246 18 16 18 17 3 18 -10 0 -18 -4 -18 -10
0 -5 -7 -10 -15 -10 -8 0 -26 -11 -40 -25 -14 -14 -25 -22 -25 -18 -1 4 -9 -2
-19 -14 -13 -15 -33 -24 -64 -27 l-45 -4 9 31 c12 42 11 188 -1 207 -7 11 -10
7 -10 -19z"/>
<path d="M9827 4955 c-33 -99 -48 -189 -49 -286 -1 -87 2 -107 27 -169 16 -39
25 -73 21 -77 -11 -11 -38 10 -57 47 -10 18 -23 38 -29 44 -5 5 -10 22 -10 37
0 15 -4 30 -9 33 -9 6 1 -56 14 -86 5 -12 2 -20 -9 -24 -23 -9 -117 50 -188
118 -53 51 -62 56 -92 51 -41 -6 -54 10 -25 31 27 18 19 42 -16 48 -26 5 -27
4 -21 -31 3 -20 7 -45 10 -56 2 -11 11 -56 20 -100 9 -43 21 -95 27 -113 8
-23 8 -36 1 -41 -5 -3 -12 -17 -15 -31 l-4 -25 -2 27 c0 15 -5 30 -11 33 -5 3
-10 15 -10 26 0 11 -4 18 -8 15 -5 -3 -26 -1 -46 5 -31 9 -36 13 -30 31 4 14
2 18 -5 14 -6 -4 -10 -31 -10 -59 1 -45 2 -48 9 -22 l8 30 1 -37 c1 -33 -4
-40 -44 -67 -26 -17 -45 -25 -45 -18 0 20 -58 41 -75 27 -9 -7 -42 -10 -90 -8
-41 2 -75 2 -75 0 0 -12 27 -52 55 -82 17 -19 37 -54 44 -78 14 -50 35 -47 25
4 -6 33 -6 34 28 34 27 0 37 -5 46 -25 12 -27 23 -29 96 -19 36 5 46 11 46 25
0 11 5 19 10 19 6 0 10 -8 10 -17 0 -39 16 -47 81 -45 35 2 68 6 73 11 15 11
85 11 92 0 9 -15 52 -10 62 7 8 15 11 13 23 -12 l14 -29 140 0 139 0 7 35 c4
19 10 56 14 83 6 43 5 47 -15 47 -11 0 -23 7 -26 15 -9 22 -24 18 -24 -6 0
-15 -4 -19 -16 -15 -9 4 -23 1 -30 -5 -8 -6 -21 -8 -30 -5 -10 4 -14 1 -12 -6
3 -7 14 -14 26 -16 15 -2 22 -10 22 -24 0 -20 -3 -21 -97 -14 -54 4 -102 11
-106 15 -18 18 5 33 45 29 l40 -4 -5 66 c-2 36 -6 72 -8 80 -7 27 55 13 131
-31 35 -21 43 -21 55 -6 16 23 27 21 49 -5 l19 -22 10 22 c12 26 20 27 37 7
15 -18 47 -20 53 -2 3 9 9 9 29 -2 37 -19 48 -7 48 50 0 27 5 49 10 49 6 0 10
-18 10 -40 0 -22 5 -40 10 -40 6 0 10 10 10 23 0 20 4 22 54 19 53 -4 53 -3
60 28 12 64 8 80 -20 80 -23 0 -25 3 -19 31 5 22 2 36 -12 51 -23 26 -80 51
-95 42 -7 -4 -36 -9 -66 -11 -46 -4 -56 -1 -69 16 -8 12 -18 19 -22 16 -5 -2
-15 3 -24 13 -20 23 -152 262 -164 298 -10 29 -10 29 -26 -21z"/>
<path d="M8826 4673 l-48 -14 21 -23 c26 -27 27 -67 3 -90 -11 -9 -50 -22 -88
-30 l-69 -14 51 -1 c27 0 55 4 61 10 6 6 25 9 44 7 29 -3 34 -7 40 -37 4 -18
12 -37 18 -40 13 -8 47 -86 56 -128 6 -32 5 -33 -24 -33 -21 0 -31 -5 -31 -15
0 -8 -4 -15 -10 -15 -5 0 -10 8 -10 17 0 9 -3 14 -6 10 -4 -3 -3 -22 0 -42 l7
-35 59 0 c55 0 60 -2 60 -22 0 -21 1 -21 14 -3 12 17 10 26 -20 79 -18 34 -36
81 -40 105 l-7 44 31 -6 c29 -6 32 -4 32 18 0 18 4 23 18 19 9 -2 7 1 -5 7
-13 7 -23 16 -23 20 0 4 10 10 23 12 20 4 20 4 1 6 -11 0 -31 12 -43 25 l-23
25 21 27 c58 74 -11 147 -113 117z"/>
<path d="M10171 4303 c-19 -4 -21 -7 -10 -14 9 -5 -16 -9 -67 -9 l-81 0 -9
-79 c-5 -44 -8 -83 -7 -88 2 -4 53 -6 115 -3 l112 5 18 75 c10 41 23 83 28 93
8 13 7 17 -4 17 -7 0 -16 -8 -18 -18 -8 -28 -38 -24 -38 5 0 13 -3 22 -7 22
-5 -1 -19 -4 -32 -6z"/>
<path d="M10290 4258 c-6 -24 -17 -61 -25 -83 -8 -23 -15 -45 -15 -51 0 -5 35
-8 88 -7 48 1 103 -2 122 -7 42 -12 50 -5 57 49 l6 41 -41 0 c-22 0 -53 -5
-68 -10 -15 -6 -29 -8 -32 -6 -8 8 58 85 78 91 45 14 15 25 -70 25 l-89 0 -11
-42z"/>
<path d="M9001 4156 c-8 -10 -8 -21 -1 -40 5 -15 10 -32 10 -37 0 -6 -556 -7
-1492 -3 -1588 6 -3640 8 -4408 4 -256 -2 -985 -2 -1620 -1 -635 1 -1230 -1
-1323 -5 l-167 -7 2 -161 3 -160 62 -16 c35 -9 68 -21 75 -28 16 -16 74 -15
134 3 63 18 88 19 524 10 500 -9 1011 13 1163 51 61 15 268 20 281 7 4 -5 35
-13 69 -19 34 -6 85 -16 113 -22 86 -18 285 -42 354 -42 72 0 396 60 378 71
-27 17 8 27 90 27 59 0 113 7 167 22 44 12 118 24 165 27 74 5 100 1 205 -26
66 -18 137 -38 157 -46 46 -18 149 -40 283 -60 105 -16 500 -22 508 -7 7 10
430 9 702 -2 229 -9 399 1 689 40 153 21 254 15 321 -18 70 -36 238 -70 273
-57 33 13 437 12 537 -1 39 -5 147 -19 240 -30 94 -11 184 -23 200 -26 125
-21 1400 -25 1500 -5 80 15 478 34 610 28 152 -7 192 -14 218 -40 17 -17 22
-18 31 -6 7 9 37 15 86 17 41 2 99 7 129 13 69 11 343 11 396 -1 22 -5 63 -14
90 -20 28 -7 128 -12 224 -13 129 -2 175 -5 179 -14 2 -9 22 -12 55 -11 l52 1
-45 7 c-25 4 -36 8 -24 8 11 1 24 6 30 11 34 32 410 26 524 -8 l65 -20 -113 2
c-61 1 -112 -1 -112 -5 0 -5 73 -7 163 -6 106 1 145 3 112 8 -40 5 -43 7 -16
8 24 2 32 6 28 16 -9 23 15 35 53 27 27 -5 34 -12 32 -26 -3 -17 4 -18 146
-12 102 4 153 2 161 -6 7 -7 26 -6 68 5 32 9 70 14 84 11 15 -3 30 0 33 6 4 6
1 11 -6 11 -10 0 -9 3 1 9 9 6 22 6 32 0 30 -16 64 -5 61 20 -3 19 1 21 45 21
26 1 68 5 92 9 33 7 53 5 80 -7 34 -15 35 -16 11 -20 -14 -2 -32 -10 -40 -17
-8 -7 -22 -15 -30 -19 -8 -3 8 -3 35 0 28 3 95 7 149 10 55 2 114 8 130 13 17
6 76 13 131 16 79 5 110 3 147 -9 25 -9 72 -16 105 -16 32 1 117 1 188 0 147
0 618 36 653 51 13 5 70 9 127 9 57 0 106 4 109 9 6 9 199 6 311 -4 80 -7 293
-32 435 -51 140 -19 564 -21 696 -3 96 13 271 7 303 -10 32 -17 200 -32 291
-26 101 7 220 20 390 42 103 13 128 19 142 37 15 19 27 21 151 22 133 1 136 1
163 -25 l29 -26 185 5 c379 10 592 3 752 -26 46 -8 139 -23 208 -34 69 -10
166 -26 215 -34 50 -9 106 -16 126 -16 20 0 39 -3 43 -7 4 -4 70 -9 147 -10
l139 -3 0 85 0 85 -35 0 c-19 0 -35 5 -35 10 0 6 16 10 35 10 l35 0 0 190 0
190 -192 0 c-3379 -2 -9940 5 -9958 10 l-25 7 28 12 c34 13 32 25 -9 52 -27
16 -33 17 -43 5z m3175 -199 c15 -9 20 -22 20 -47 -1 -28 3 -35 24 -40 22 -5
19 -8 -22 -18 -47 -12 -98 -2 -98 20 0 4 -11 8 -24 8 -13 0 -40 7 -59 15 -40
16 -41 38 -4 50 12 5 31 11 42 15 31 12 98 10 121 -3z m243 -43 c3 -3 -1 -10
-7 -16 -7 -7 -12 -21 -12 -32 0 -13 3 -16 8 -10 12 18 63 23 113 11 37 -9 48
-16 52 -34 2 -12 -1 -25 -7 -27 -6 -3 -2 -12 12 -22 27 -20 28 -32 5 -50 -21
-16 -79 -18 -88 -4 -3 6 -14 10 -23 10 -9 0 -34 16 -56 35 -22 20 -49 35 -63
35 -27 0 -90 26 -99 42 -3 5 0 16 7 24 6 8 9 18 5 22 -21 20 131 36 153 16z
m1199 -114 c53 1 67 -11 35 -29 -15 -9 -12 -10 17 -11 19 0 42 -5 50 -10 28
-18 -8 -28 -99 -26 -194 6 -185 4 -220 35 -30 27 -31 30 -14 39 10 6 53 9 98
6 44 -2 104 -4 133 -4z m-4343 -62 c43 -16 66 -18 161 -12 116 7 145 1 150
-31 2 -15 -10 -17 -129 -15 -73 1 -141 1 -152 1 -73 -3 -233 6 -245 14 -8 6
-94 11 -190 11 -175 1 -267 15 -190 28 19 3 112 8 205 10 94 2 188 9 210 14
51 12 116 5 180 -20z"/>
<path d="M3598 3772 c-15 -3 -16 -7 -7 -24 13 -25 11 -27 -30 -30 -18 -1 -35
-6 -37 -10 -3 -4 -18 -8 -35 -8 -22 0 -29 -5 -29 -20 0 -16 -7 -20 -32 -20
-25 0 -29 -3 -18 -10 12 -8 12 -10 1 -10 -30 0 1 -12 130 -50 74 -22 149 -45
167 -51 19 -6 57 -15 85 -19 29 -4 85 -20 125 -34 41 -14 90 -25 110 -25 l37
1 -30 8 c-26 7 -23 8 22 9 28 0 55 -3 58 -9 3 -5 -3 -10 -13 -10 -11 0 -22 -7
-26 -15 -3 -8 -2 -14 2 -13 16 3 93 -15 98 -23 8 -13 74 -11 74 2 0 13 48 6
87 -14 l30 -16 1 34 c1 24 -4 35 -16 38 -9 3 18 5 61 6 71 1 77 -1 77 -19 0
-16 7 -20 33 -20 29 0 33 -4 45 -40 19 -61 17 -63 -35 -57 l-48 6 43 -11 c39
-10 45 -9 63 11 23 25 35 26 55 7 20 -20 18 -26 -10 -26 -14 0 -28 -5 -32 -12
-5 -8 2 -9 24 -5 18 4 32 3 32 -2 0 -13 70 -30 150 -36 51 -4 69 -2 55 4 -11
5 -15 10 -8 10 6 1 18 4 27 7 12 4 16 0 16 -15 0 -15 6 -21 21 -21 14 0 19 5
16 14 -4 9 1 17 11 19 10 3 4 6 -13 7 l-30 2 35 8 c48 12 178 11 185 -1 8 -13
475 -12 475 1 0 6 14 10 30 10 17 0 30 -5 30 -10 0 -7 31 -11 78 -11 105 0
132 -3 132 -11 0 -5 39 -8 87 -8 76 0 85 2 73 14 -20 20 -70 32 -70 17 0 -6
-9 -11 -20 -11 -18 0 -20 7 -20 79 0 84 4 91 55 91 34 0 55 -10 55 -26 0 -17
17 -19 22 -3 4 13 468 20 468 7 0 -4 36 -8 79 -8 55 0 81 -4 84 -12 3 -10 114
-12 520 -10 381 3 517 1 517 -8 0 -6 4 -9 9 -6 5 3 56 8 112 11 240 12 312 17
330 23 18 7 18 9 3 30 -8 12 -22 22 -31 22 -8 0 -29 6 -46 14 -43 19 -81 27
-147 32 -49 3 -51 2 -22 -7 17 -5 32 -16 32 -24 0 -19 -52 -19 -270 -1 -91 8
-257 20 -370 26 -245 13 -489 42 -585 70 -38 11 -85 20 -103 20 -18 0 -42 5
-53 10 -15 8 -19 7 -19 -4 0 -18 -30 -30 -44 -16 -17 17 -44 11 -51 -10 -5
-17 -15 -20 -60 -20 -29 0 -60 -3 -68 -6 -8 -3 -21 2 -30 10 -16 17 -52 22
-43 7 6 -10 -41 -21 -90 -21 -24 0 -34 -5 -34 -15 0 -12 -16 -15 -81 -15 -51
0 -78 4 -74 10 4 6 -8 10 -29 10 -20 0 -36 -4 -36 -10 0 -6 -60 -10 -160 -10
l-160 0 0 31 c0 27 -3 30 -22 26 -13 -3 -40 -9 -60 -12 -28 -5 -38 -12 -38
-26 0 -17 8 -19 60 -19 l60 0 0 -40 0 -40 -150 0 c-93 0 -150 4 -150 10 0 6
-43 10 -110 10 -67 0 -110 -4 -110 -10 0 -16 -109 -12 -126 4 -19 20 -18 26 6
26 13 0 20 7 20 20 0 23 7 24 46 10 19 -7 30 -7 40 1 11 9 14 7 14 -10 0 -20
5 -21 95 -21 57 0 95 4 95 10 0 6 7 10 15 10 8 0 15 9 15 20 0 13 -7 20 -20
20 -11 0 -20 -4 -20 -10 0 -5 -4 -10 -10 -10 -5 0 -10 9 -10 21 0 18 5 21 34
17 19 -2 32 0 30 4 -8 13 -102 9 -106 -4 -5 -15 -110 -25 -211 -20 -63 3 -74
7 -83 25 -5 12 -16 22 -24 23 -35 2 -40 5 -40 19 0 12 4 13 19 6 10 -6 21 -7
25 -3 4 3 11 0 16 -8 8 -13 10 -12 10 3 0 9 7 17 16 17 8 0 13 4 10 9 -6 9
-121 5 -138 -5 -5 -3 -42 -8 -81 -9 -55 -2 -63 -1 -32 5 33 6 25 8 -45 9 -110
3 -380 26 -525 46 -55 8 -178 37 -190 45 -5 3 -39 14 -75 24 -36 10 -75 22
-88 27 -31 12 -74 11 -92 -2 -12 -8 -8 -10 17 -7 18 3 30 1 27 -4 -3 -4 -20
-8 -39 -8 -19 0 -37 -6 -42 -12 -5 -9 -9 -5 -13 12 -3 18 -10 24 -22 22z"/>
<path d="M1920 3705 c-47 -8 -112 -15 -145 -16 -46 -1 -53 -3 -30 -8 30 -7 30
-7 8 -19 -17 -9 -23 -10 -23 -1 0 15 -122 7 -128 -9 -5 -17 -22 -15 -22 3 0
12 -40 13 -282 9 -156 -2 -338 -6 -406 -9 -68 -2 -205 0 -305 6 -178 10 -298
6 -281 -11 23 -22 144 -49 196 -43 33 3 73 -1 108 -10 30 -9 95 -19 143 -22
63 -5 90 -11 94 -21 3 -8 3 -17 0 -21 -6 -5 -385 25 -397 32 -3 2 -29 7 -56
10 -27 4 -71 17 -99 29 -27 12 -70 23 -95 25 -24 2 -61 11 -81 21 -20 11 -39
17 -42 14 -3 -3 -19 2 -36 10 -16 9 -32 16 -36 16 -3 0 -5 -85 -5 -189 l0
-188 143 4 c78 2 158 8 177 13 28 8 241 28 357 34 12 0 25 4 29 9 4 4 37 7 72
7 62 0 145 8 327 31 44 6 132 17 195 24 63 7 144 20 180 28 58 14 172 33 255
43 17 3 66 9 110 15 44 6 116 13 160 16 44 3 85 9 92 15 7 5 13 5 17 -1 4 -5
19 -6 39 -1 83 21 129 30 152 30 22 0 25 4 26 38 0 20 3 32 5 25 5 -11 15 -9
77 13 24 9 21 24 -5 25 -13 1 -36 3 -53 4 -16 1 -35 -2 -42 -7 -7 -5 -14 -5
-18 2 -3 5 -3 11 2 11 4 1 -14 6 -42 11 -92 16 -247 18 -335 3z"/>
<path d="M3095 3610 l-30 -8 28 -1 c33 -1 36 -21 3 -21 -13 0 -33 -3 -43 -6
-15 -5 -15 -4 -3 5 23 16 7 22 -43 15 -30 -4 -47 -12 -47 -20 0 -10 -14 -14
-52 -13 l-53 2 40 8 c34 6 31 7 -20 4 -33 -1 -96 -10 -140 -19 -44 -9 -136
-19 -205 -22 -69 -3 -129 -10 -134 -15 -6 -5 -36 -9 -67 -9 -32 0 -59 -4 -61
-9 -1 -6 -55 -12 -118 -15 -63 -2 -126 -9 -140 -14 -14 -5 -79 -12 -144 -16
-66 -4 -123 -9 -128 -12 -5 -4 -22 -7 -36 -9 -15 -1 -85 -8 -157 -14 -71 -7
-139 -16 -150 -21 -11 -5 -112 -18 -225 -30 -245 -25 -338 -38 -346 -52 -3 -5
-38 -9 -78 -8 -80 2 -182 -4 -301 -20 -122 -15 -129 -16 -145 -23 -12 -4 -186
-15 -282 -17 -16 0 -18 -13 -18 -124 l0 -124 28 -6 c15 -4 56 -11 92 -16 86
-12 183 -29 245 -41 28 -5 74 -14 104 -20 29 -5 66 -16 82 -24 15 -8 47 -15
70 -15 24 0 56 -4 73 -9 52 -16 133 -33 199 -41 34 -5 94 -16 132 -25 39 -9
102 -23 140 -30 39 -7 100 -21 137 -29 37 -9 89 -15 116 -14 30 2 56 -4 71
-14 13 -10 37 -15 57 -13 19 2 37 -1 40 -6 3 -5 21 -9 40 -9 19 0 34 -4 34 -9
0 -5 24 -11 53 -14 55 -6 113 -17 240 -48 89 -22 148 -24 165 -7 8 8 45 11
117 10 58 -2 105 1 105 5 0 5 61 9 136 10 76 1 140 6 143 11 5 8 94 21 169 26
12 0 22 4 22 7 0 18 142 41 300 49 222 12 418 34 431 47 7 7 35 9 70 6 35 -4
59 -2 59 4 0 5 6 10 13 10 6 0 17 2 22 3 6 2 23 0 38 -5 18 -5 46 -2 82 9 29
10 77 16 107 15 57 -2 233 13 443 37 72 8 182 19 245 24 63 5 165 18 225 28
61 11 157 25 215 31 58 6 168 18 245 26 77 9 185 22 240 30 55 9 152 22 215
31 67 9 121 21 130 30 12 12 11 14 -13 15 -15 1 -31 3 -37 4 -5 1 -20 3 -33 4
-15 1 -23 8 -24 20 -1 15 6 20 35 23 52 4 102 -2 102 -13 0 -5 -9 -9 -20 -9
-11 0 -20 -5 -20 -11 0 -6 9 -9 20 -6 11 3 20 0 20 -5 0 -13 108 -2 125 12 7
6 14 8 16 6 2 -2 17 -6 33 -10 27 -7 28 -5 24 19 -5 21 -2 25 13 20 11 -4 19
-2 19 4 0 6 11 11 25 11 27 0 32 -9 13 -28 -9 -9 -8 -12 7 -12 10 0 16 3 12 6
-3 4 0 13 8 20 9 10 38 14 89 14 44 0 76 4 76 10 0 6 -54 10 -142 10 -78 0
-139 3 -136 6 6 5 41 7 233 13 39 2 63 5 55 8 -8 3 -21 11 -29 17 -26 20 -192
23 -496 7 -121 -6 -353 -14 -515 -18 -283 -7 -292 -8 -230 -21 241 -50 262
-56 245 -74 -5 -4 -272 41 -360 61 -22 5 -92 21 -155 35 -63 14 -173 39 -245
55 -71 16 -179 43 -240 59 -60 17 -146 40 -190 52 -149 40 -190 52 -242 71
-29 10 -53 17 -53 14 0 -2 -48 13 -107 34 -150 53 -371 114 -394 108 -10 -3
-17 -1 -13 4 3 5 -14 9 -38 9 -24 0 -49 5 -55 11 -7 7 -23 9 -40 4 -25 -6 -26
-8 -9 -17 25 -14 3 -28 -46 -28 -34 0 -38 3 -38 25 0 14 -3 24 -7 24 -5 -1
-21 -5 -38 -9z"/>
<path d="M17155 3604 c-152 -37 -167 -51 -87 -79 26 -9 58 -21 71 -26 27 -11
307 -76 516 -119 154 -32 251 -36 578 -23 l167 6 0 26 c0 14 4 31 8 36 4 6 43
10 87 10 113 1 325 17 330 25 3 4 -26 10 -63 14 -37 3 -87 11 -112 16 -25 5
-92 17 -150 26 -58 9 -145 22 -195 30 -49 8 -128 14 -175 13 -126 0 -138 0
-225 10 -103 12 -305 2 -305 -14 0 -6 3 -15 8 -19 4 -4 7 -13 7 -19 0 -7 20
-14 45 -17 25 -3 44 -9 42 -15 -2 -5 12 -14 32 -19 40 -11 53 -33 32 -55 -14
-13 -24 -11 -98 13 -46 15 -99 38 -119 51 -20 13 -67 39 -105 59 -38 20 -84
48 -103 61 -40 29 -91 31 -186 9z"/>
<path d="M14368 3570 c17 -6 32 -15 32 -20 0 -6 11 -8 26 -4 20 5 25 4 19 -6
-5 -8 -20 -10 -49 -6 -22 4 -52 9 -65 11 -28 4 -51 -3 -51 -17 0 -6 17 -7 43
-3 l42 7 -22 -20 c-26 -22 -32 -82 -10 -100 6 -6 29 -10 50 -9 29 1 37 5 37
19 0 11 7 18 20 18 17 0 20 -7 20 -40 0 -33 -3 -40 -20 -40 -11 0 -20 5 -20
10 0 6 -22 10 -50 10 -29 0 -50 4 -50 11 0 7 -22 9 -67 5 -38 -3 -84 -6 -103
-6 -136 -2 -199 4 -186 17 7 8 -13 33 -26 33 -5 0 -7 -4 -3 -9 9 -15 -30 -23
-57 -12 -14 5 -58 10 -97 10 -39 0 -77 4 -84 8 -6 4 -19 8 -27 9 -8 0 -22 3
-30 7 -123 47 -363 99 -338 72 5 -5 24 -8 45 -7 48 2 33 -11 -39 -33 -36 -11
-73 -16 -98 -12 -38 5 -41 3 -46 -21 -8 -40 -61 -61 -169 -66 -49 -3 -92 -5
-94 -5 -2 -1 -1 -10 2 -21 6 -24 -18 -28 -27 -5 -3 9 -19 15 -41 15 -29 0 -35
-4 -36 -22 0 -13 -2 -36 -3 -51 -1 -17 4 -32 14 -36 22 -12 259 -21 266 -10 3
5 38 9 77 8 51 -1 65 -3 47 -9 -20 -6 -14 -9 30 -11 62 -2 63 -2 145 5 37 4
52 3 40 -3 -19 -8 -19 -8 4 -16 48 -15 450 -10 566 8 61 9 139 19 175 22 36 2
184 19 330 35 146 17 309 36 362 42 81 8 96 13 91 26 -5 11 -2 14 9 9 11 -4
18 1 21 14 3 13 14 19 32 19 18 0 29 6 32 20 5 18 7 18 26 5 12 -8 35 -15 51
-15 28 0 29 1 10 15 -10 8 -28 15 -39 15 -13 0 -21 7 -22 20 -1 11 2 20 8 20
5 0 9 9 9 20 0 11 -4 20 -10 20 -5 0 -10 -9 -10 -20 0 -13 -7 -20 -20 -20 -11
0 -20 -4 -20 -10 0 -6 -30 -10 -69 -10 -46 0 -71 -4 -74 -12 -2 -7 -8 -10 -12
-6 -5 5 2 16 13 27 12 10 22 21 22 25 0 3 -72 6 -160 6 -100 0 -160 -4 -160
-10 0 -6 -37 -10 -90 -10 -53 0 -90 4 -90 10 0 6 37 10 90 10 53 0 90 4 90 10
0 6 14 10 30 10 17 0 30 5 30 10 0 6 18 10 40 10 22 0 40 5 40 10 0 6 -17 10
-37 10 -96 0 -291 9 -318 14 -28 5 -28 5 3 -4z"/>
<path d="M16645 3490 c-3 -6 -1 -10 4 -10 6 0 11 -8 11 -17 0 -15 -2 -16 -10
-3 -7 11 -10 11 -10 2 0 -9 -12 -12 -37 -10 -28 2 -38 7 -37 20 1 10 -4 14
-12 11 -8 -3 -14 -11 -14 -19 0 -8 -7 -14 -15 -14 -8 0 -15 7 -15 15 0 22 -23
18 -38 -5 -9 -15 -23 -20 -52 -20 -22 0 -40 -4 -40 -10 0 -5 -12 -10 -27 -10
-16 0 -34 -4 -41 -9 -8 -5 8 -7 40 -5 49 2 50 2 13 -5 l-40 -8 40 -2 c31 -1
37 -4 25 -12 -11 -8 -12 -12 -2 -16 6 -2 12 -13 12 -24 0 -16 -7 -19 -40 -19
-33 0 -40 3 -40 20 0 16 -7 20 -30 20 -16 0 -30 5 -30 10 0 13 -97 13 -102 0
-2 -6 -21 -4 -50 5 l-48 14 0 -50 c0 -31 4 -48 10 -44 6 3 10 -4 9 -17 0 -13
-3 -17 -6 -10 -2 6 -16 12 -29 12 -20 0 -24 5 -24 29 0 18 -6 31 -17 35 -12 5
-14 9 -5 18 23 23 11 28 -61 28 -48 0 -80 -5 -94 -15 -12 -9 -29 -12 -40 -8
-17 7 -17 6 0 -11 13 -13 21 -15 31 -7 7 6 35 14 61 18 38 5 47 3 43 -8 -3 -9
6 -18 24 -24 27 -10 28 -12 14 -30 -14 -17 -17 -18 -26 -5 -8 13 -10 13 -10
-2 0 -10 -4 -18 -10 -18 -5 0 -10 4 -10 10 0 6 -39 9 -95 9 -56 0 -95 -5 -95
-10 0 -6 -5 -7 -11 -3 -6 3 -14 1 -18 -5 -11 -17 -41 -2 -41 20 0 10 5 19 12
19 6 0 9 3 5 6 -3 4 -32 8 -64 10 -41 3 -53 1 -41 -6 10 -6 14 -18 11 -30 -3
-11 0 -20 6 -20 6 0 11 10 11 23 0 18 2 19 10 7 5 -8 10 -27 10 -42 0 -26 -3
-28 -39 -28 -22 0 -41 5 -44 13 -3 6 -5 3 -5 -8 1 -11 0 -24 -2 -30 -6 -25 2
-35 29 -35 16 0 31 6 35 15 3 8 12 15 21 15 8 0 15 7 15 15 0 18 46 21 52 4 4
-12 52 -15 268 -18 173 -3 160 -5 160 29 0 17 5 30 10 30 19 0 22 29 6 45 -25
25 -19 31 22 26 20 -2 31 -6 25 -8 -7 -3 -13 -16 -13 -30 0 -19 5 -24 23 -23
45 4 57 0 57 -20 0 -18 7 -20 80 -20 73 0 80 -2 80 -20 0 -18 7 -20 79 -20 54
0 81 4 83 12 3 9 10 8 23 -5 14 -15 15 -21 5 -27 -7 -4 -9 -13 -5 -20 4 -7 -5
-5 -23 4 -17 9 -38 13 -48 9 -14 -5 -13 -8 7 -20 23 -14 24 -14 2 -8 -18 5
-23 2 -23 -14 0 -14 8 -22 28 -26 15 -4 56 -17 92 -29 36 -13 83 -28 105 -35
22 -7 56 -18 75 -26 19 -7 87 -32 150 -55 111 -40 162 -59 225 -85 17 -7 46
-17 65 -23 44 -14 404 -32 610 -32 199 0 1182 28 1278 36 l72 6 0 98 c0 83 -3
99 -17 104 -9 4 -62 11 -117 16 -231 22 -520 65 -701 104 -102 23 -148 32
-345 72 -41 9 -131 28 -200 44 -69 15 -147 32 -175 38 -135 27 -291 64 -388
92 -124 35 -261 40 -284 10 -8 -9 -12 -10 -13 -3 0 8 -12 10 -35 6 -28 -4 -39
-1 -53 15 -13 15 -34 22 -76 26 -32 2 -60 7 -63 10 -3 3 -12 -2 -20 -10 -14
-13 -18 -13 -39 0 -14 10 -25 12 -29 6z"/>
<path d="M10010 3470 c0 -5 -7 -10 -15 -10 -8 0 -15 -4 -15 -10 0 -14 -37 -12
-44 3 -5 10 -7 10 -12 0 -3 -7 -13 -13 -22 -13 -15 0 -15 -2 -2 -10 12 -8 9
-10 -12 -10 -16 0 -28 -4 -28 -10 0 -5 -7 -10 -15 -10 -8 0 -15 5 -15 10 0 6
-4 10 -10 10 -5 0 -10 -15 -11 -32 0 -18 -3 -27 -6 -20 -8 21 -23 13 -23 -13
0 -17 6 -25 18 -25 22 0 129 -34 139 -43 8 -9 -24 -4 -50 8 -12 5 -22 2 -31
-10 -12 -16 -13 -16 -29 0 -16 15 -17 15 -17 -3 0 -22 -19 -29 -115 -43 -33
-4 -69 -10 -80 -13 -11 -2 -26 -5 -33 -5 -7 -1 -10 -5 -7 -11 4 -6 -14 -10
-47 -11 -81 -2 -91 -3 -94 -14 -8 -22 16 -36 102 -60 49 -14 118 -34 154 -45
36 -10 117 -33 180 -49 63 -17 153 -44 200 -61 47 -17 90 -32 95 -34 6 -2 24
-9 40 -15 22 -10 217 -16 751 -24 702 -10 728 -10 1005 11 156 12 380 27 498
32 118 6 217 13 220 15 2 3 -5 5 -17 5 -12 0 -22 5 -22 10 0 6 24 11 53 12 74
2 81 3 94 11 6 4 15 2 19 -4 5 -8 9 -8 14 1 6 9 36 12 101 11 52 -1 186 -2
298 -1 178 1 206 3 217 18 6 9 10 22 7 29 -4 9 6 13 36 13 29 0 41 4 41 14 0
8 6 17 13 19 6 3 -10 6 -38 7 -46 1 -48 2 -22 12 69 25 -36 38 -143 18 -29 -6
-186 -17 -349 -25 -315 -16 -563 -32 -648 -41 -42 -4 -53 -3 -53 9 0 9 13 17
33 20 83 15 539 48 917 67 112 6 206 12 208 14 3 4 -52 6 -578 27 -146 5 -332
17 -415 25 -82 8 -229 21 -325 29 -96 8 -220 19 -275 25 -55 5 -145 15 -200
20 -55 6 -148 17 -206 25 -94 12 -435 35 -749 50 -102 5 -112 4 -90 -9 14 -8
68 -24 120 -36 52 -11 115 -27 140 -35 25 -7 63 -17 85 -21 22 -4 45 -8 50
-10 6 -1 80 -19 165 -38 152 -35 385 -90 425 -100 11 -3 64 -15 118 -26 96
-21 127 -40 65 -40 -41 0 -204 33 -403 81 -88 21 -187 43 -220 49 -33 6 -100
20 -150 31 -49 11 -110 25 -135 30 -47 11 -107 27 -470 130 -370 105 -380 107
-380 89z"/>
<path d="M19168 3414 c-4 -3 -28 -6 -54 -6 -27 0 -61 -6 -77 -14 -20 -11 -44
-13 -80 -9 -29 4 -90 1 -137 -5 -47 -7 -114 -15 -150 -19 -49 -5 -12 -8 155
-14 121 -4 255 -7 298 -7 l77 0 0 40 c0 37 -14 52 -32 34z"/>
<path d="M18007 3311 c-12 -4 11 -13 70 -25 48 -9 158 -33 243 -51 85 -18 227
-45 315 -60 88 -14 196 -32 240 -40 62 -12 273 -35 318 -35 4 0 7 42 7 94 l0
95 -42 5 c-144 18 -1114 32 -1151 17z"/>
<path d="M14893 3273 c-7 -2 -13 -16 -13 -29 0 -19 -5 -24 -26 -24 -30 0 -54
-21 -54 -48 0 -11 -9 -31 -21 -46 l-20 -26 85 0 c51 0 86 4 86 10 0 6 -9 10
-19 10 -11 0 -23 5 -26 10 -3 6 -3 10 2 10 4 0 23 14 41 31 60 56 34 131 -35
102z"/>
<path d="M7098 3128 c-3 -7 -17 -12 -31 -10 -25 2 -27 -1 -27 -38 l0 -40 -70
0 c-40 0 -70 -4 -70 -10 0 -5 14 -10 30 -10 27 0 30 -3 30 -30 l0 -30 -120 0
c-113 0 -120 -1 -120 -20 0 -17 -7 -20 -40 -20 -22 0 -40 -4 -40 -10 0 -5 -18
-10 -40 -10 -22 0 -40 -4 -40 -10 0 -5 5 -10 10 -10 6 0 10 -9 10 -20 0 -18 7
-20 70 -20 39 0 70 -2 70 -5 0 -3 -12 -18 -27 -33 -17 -17 -28 -22 -31 -14 -5
15 -22 16 -22 1 0 -29 34 -43 110 -45 43 -1 88 -7 99 -14 12 -6 26 -8 31 -5 6
3 10 -1 10 -11 0 -14 7 -15 46 -9 34 5 49 3 55 -7 7 -10 9 -9 9 5 0 9 5 17 10
17 6 0 10 -4 10 -10 0 -5 23 -10 50 -10 28 0 50 5 50 10 0 6 23 10 50 10 28 0
50 5 50 10 0 6 14 10 30 10 17 0 30 -4 30 -10 0 -6 47 -10 120 -10 l120 0 0
-40 0 -40 70 0 c39 0 70 -4 70 -8 0 -5 12 -14 27 -21 27 -12 27 -13 8 -27 -18
-13 -17 -14 9 -14 27 0 28 2 23 34 -4 28 -2 35 14 39 14 4 19 14 19 41 0 35 1
36 40 36 l40 0 0 40 0 40 -45 0 -44 0 -3 68 c-3 61 -5 67 -25 70 -13 2 -23 8
-23 13 0 5 -40 9 -90 9 l-90 0 0 -80 c0 -47 -4 -80 -10 -80 -5 0 -10 -13 -10
-30 l0 -30 -110 0 -110 0 0 30 c0 28 -2 30 -40 30 l-40 0 0 80 0 80 -80 0 -80
0 0 40 0 40 80 0 80 0 0 35 c0 36 -8 40 -67 38 -7 -1 -13 5 -13 13 0 17 -17
18 -22 2z"/>
<path d="M8842 3108 c-17 -17 -15 -28 6 -22 9 2 7 -1 -5 -7 -25 -13 -29 -24
-13 -34 6 -3 10 -1 10 4 0 6 9 11 19 11 11 0 22 6 25 13 5 10 7 10 12 0 3 -7
23 -13 45 -13 31 0 37 -3 28 -12 -6 -7 -27 -13 -45 -14 -43 -1 -53 -10 -28
-29 16 -13 16 -14 2 -9 -12 4 -18 1 -18 -10 0 -11 -9 -16 -26 -16 -21 0 -25 4
-21 20 3 13 0 20 -9 20 -8 0 -17 7 -20 15 -9 21 -90 21 -98 -1 -5 -14 1 -15
43 -12 41 2 51 0 55 -14 2 -11 -1 -18 -10 -18 -8 0 -14 -4 -14 -10 0 -5 -16
-10 -35 -10 -21 0 -35 5 -35 13 0 8 -4 7 -10 -3 -9 -13 -12 -13 -21 3 -6 10
-22 17 -39 17 -31 0 -41 -17 -16 -26 8 -3 17 -12 20 -19 3 -9 0 -12 -10 -8 -7
3 -14 10 -14 15 0 6 -11 8 -27 4 -16 -4 -36 -7 -45 -7 -10 0 -18 -3 -18 -5 0
-7 62 -69 69 -69 3 -1 26 -8 51 -17 25 -9 79 -26 120 -39 82 -24 103 -40 94
-76 -4 -14 -2 -23 5 -23 6 0 11 5 11 11 0 7 10 9 25 7 14 -3 25 -1 25 3 0 5
11 9 25 9 31 0 33 -16 3 -25 -80 -22 -90 -46 -36 -85 22 -17 37 -30 32 -30 -5
0 -2 -5 6 -10 13 -8 12 -10 -2 -10 -10 0 -18 -4 -18 -9 0 -5 -18 -12 -40 -16
-22 -4 -40 -10 -40 -15 0 -8 -17 -12 -135 -30 -200 -29 -341 -54 -445 -76 -41
-9 -90 -18 -107 -21 -36 -6 -43 -19 -15 -27 33 -10 387 -95 417 -100 17 -3 84
-17 150 -31 66 -14 170 -34 230 -46 61 -11 133 -24 160 -29 114 -22 370 -49
510 -55 83 -3 202 -10 265 -16 63 -5 226 -16 363 -24 136 -8 252 -17 259 -21
6 -4 122 -8 257 -9 135 -1 257 -5 271 -9 l25 -7 -25 15 c-14 8 -25 18 -25 23
0 13 139 13 148 0 5 -9 12 -6 23 8 14 19 13 20 -25 23 -23 2 -41 7 -41 13 0 5
-13 9 -30 9 -16 0 -30 5 -30 10 0 15 117 13 124 -2 5 -10 7 -10 12 0 3 7 24
12 50 12 42 0 44 -1 38 -24 -4 -19 -1 -24 19 -28 28 -5 60 8 52 22 -6 9 -1 10
74 10 l45 0 -23 21 c-16 15 -32 20 -57 17 -33 -4 -34 -3 -34 30 l0 34 94 -4
c52 -1 98 0 102 5 13 13 44 7 44 -8 0 -11 -11 -15 -40 -15 -37 0 -45 -7 -41
-32 0 -5 -4 -8 -11 -8 -6 0 -8 -3 -5 -6 12 -12 77 -9 82 4 2 6 0 12 -5 12 -6
0 -10 5 -10 11 0 6 6 7 12 2 18 -10 67 -4 100 13 25 13 28 13 28 -1 0 -17 35
-21 45 -5 4 6 11 8 16 5 5 -3 14 -1 21 5 7 6 22 17 33 25 19 14 19 14 -7 15
-16 0 -28 -4 -28 -10 0 -5 -9 -10 -19 -10 -14 0 -18 5 -14 20 4 15 11 19 24
15 10 -4 38 -7 61 -7 24 -1 35 -3 26 -6 -10 -2 -18 -8 -18 -14 0 -13 83 1 92
16 4 6 22 15 39 21 37 13 57 56 35 74 -7 6 -16 8 -19 5 -3 -4 -25 3 -49 13
-24 11 -71 24 -105 30 -58 8 -63 7 -63 -9 0 -19 -25 -25 -35 -8 -3 6 -19 10
-36 10 -16 0 -29 -4 -29 -10 0 -5 5 -10 10 -10 6 0 10 -9 10 -20 0 -11 5 -20
10 -20 6 0 10 -4 10 -10 0 -5 -9 -10 -20 -10 -16 0 -20 7 -20 30 l0 30 -80 0
c-73 0 -80 2 -80 20 0 16 7 20 30 20 19 0 30 5 30 14 0 7 -13 16 -30 20 -31 6
-40 21 -17 29 6 2 1 2 -12 0 -13 -2 -28 2 -32 9 -7 10 -9 10 -9 -1 0 -10 -5
-9 -17 5 -18 20 -93 47 -343 124 -202 62 -222 67 -260 75 -19 4 -39 11 -45 15
-5 4 -35 12 -65 18 -30 7 -80 19 -110 28 -30 9 -93 26 -140 39 -47 13 -107 30
-135 38 -27 9 -80 24 -117 35 -36 11 -93 29 -125 40 -32 11 -85 28 -118 37
-33 9 -69 21 -80 26 -34 15 -108 28 -156 29 -26 0 -80 7 -120 15 -41 8 -88 16
-104 18 -17 3 -55 9 -85 15 -59 12 -298 45 -445 62 -117 13 -158 13 -173 -2z
m2448 -669 c0 -5 -6 -9 -14 -9 -8 0 -22 -7 -30 -16 -15 -14 -16 -14 -16 0 0
10 -9 16 -25 16 -16 0 -25 -6 -25 -15 0 -8 9 -15 20 -15 11 0 20 -4 20 -10 0
-6 43 -10 110 -10 l110 0 0 -30 0 -30 -147 1 c-174 0 -285 11 -291 27 -5 17
-22 15 -22 -4 0 -11 -6 -14 -20 -9 -11 4 -20 2 -20 -4 0 -6 -7 -11 -15 -11 -8
0 -15 7 -15 15 0 8 -7 15 -15 15 -9 0 -15 9 -15 25 0 25 0 25 107 39 36 5 43
3 48 -14 4 -12 15 -20 29 -20 34 0 39 11 14 37 l-21 23 59 2 c126 3 143 4 150
11 8 8 24 -1 24 -14z m-804 -85 c28 7 34 -16 10 -40 -22 -21 -56 -18 -56 6 0
11 -4 20 -10 20 -5 0 -10 -22 -10 -50 0 -49 1 -50 30 -50 27 0 30 -3 30 -30 0
-37 -34 -49 -77 -26 -15 8 -22 15 -15 16 21 0 13 20 -8 20 -11 0 -20 5 -20 10
0 6 -13 10 -30 10 -17 0 -30 5 -31 13 0 10 -2 10 -6 0 -8 -21 -33 -15 -33 7 0
11 -7 20 -15 20 -8 0 -15 2 -15 4 0 2 -3 11 -6 20 -4 12 0 16 15 16 12 0 21
-4 21 -10 0 -5 13 -10 29 -10 25 0 28 3 24 24 -4 22 -1 25 28 30 70 11 84 12
102 3 11 -5 30 -6 43 -3z m94 -184 c0 -6 57 -10 150 -10 93 0 150 4 150 10 0
20 51 10 75 -15 14 -13 25 -27 25 -30 0 -3 -66 -5 -147 -5 -99 0 -143 -3 -133
-10 26 -17 -6 -11 -55 10 -26 11 -55 20 -66 20 -12 0 -19 7 -19 20 0 11 5 20
10 20 6 0 10 -4 10 -10z"/>
<path d="M6565 3050 c-10 -15 -16 -17 -93 -24 -24 -2 -46 -7 -49 -10 -13 -12
-25 -5 -21 12 4 15 -1 17 -36 13 -39 -4 -40 -5 -11 -11 25 -5 27 -7 12 -13
-10 -4 -33 -7 -51 -7 -39 0 -96 -18 -96 -31 0 -11 -57 -12 -64 -1 -6 10 -96 2
-96 -9 0 -5 18 -9 40 -9 38 0 40 -2 40 -30 0 -30 0 -30 -57 -30 -40 -1 -53 -3
-42 -10 8 -5 39 -8 69 -6 29 1 48 0 42 -2 -7 -2 -17 -12 -23 -23 -9 -17 -7
-19 18 -19 15 0 43 -2 61 -6 24 -5 45 0 80 17 26 13 49 27 50 32 2 4 17 7 33
7 27 0 29 3 29 35 l0 35 50 0 c43 0 50 3 50 20 0 11 5 20 10 20 6 0 10 -9 10
-20 0 -18 7 -20 70 -20 39 0 70 4 70 8 0 10 -45 32 -65 32 -8 0 -15 13 -17 33
-2 25 -5 29 -13 17z"/>
<path d="M14630 3037 c-80 -4 -296 -19 -480 -32 -184 -13 -436 -29 -560 -35
-124 -6 -279 -15 -345 -20 -300 -24 -394 -30 -595 -40 -224 -11 -412 -21 -760
-42 -217 -13 -673 -14 -1157 -3 -205 5 -293 4 -293 -4 0 -5 19 -15 43 -21 23
-5 62 -16 87 -24 25 -8 70 -20 100 -26 30 -5 100 -24 155 -41 227 -70 295 -90
405 -120 63 -17 124 -35 135 -40 124 -55 315 -89 500 -89 l135 0 0 -29 c0 -16
-6 -32 -12 -34 -7 -3 8 -6 35 -6 26 -1 47 -5 47 -10 0 -14 63 -26 68 -12 5 16
39 13 46 -4 7 -19 30 -19 50 1 9 8 20 13 24 10 5 -3 7 6 4 19 -3 20 0 25 17
25 23 0 30 -35 9 -43 -7 -3 3 -4 22 -3 26 1 35 -3 38 -18 2 -11 0 -16 -7 -12
-13 8 -61 -3 -61 -15 0 -13 25 -11 67 6 38 15 38 16 35 65 l-4 50 -74 0 c-43
0 -74 4 -74 10 0 6 40 10 98 11 205 2 521 17 600 29 45 6 119 9 165 6 45 -4
107 -6 137 -6 30 0 67 -5 84 -12 26 -10 27 -13 10 -19 -16 -6 -16 -8 -2 -8 9
-1 18 -5 20 -10 2 -5 31 -11 64 -13 48 -3 61 -1 57 9 -7 17 -23 17 -23 1 0
-14 -20 11 -20 25 0 4 77 7 170 7 107 0 170 -4 170 -10 0 -6 -47 -10 -120 -10
-110 0 -139 -7 -109 -26 8 -4 7 -9 -2 -15 -11 -7 -10 -9 4 -9 9 0 17 7 17 15
0 9 9 15 25 15 14 0 25 -4 25 -10 0 -5 -6 -10 -12 -10 -9 0 -9 -3 1 -9 11 -7
10 -10 -5 -14 -14 -3 -12 -5 8 -6 15 0 34 -8 43 -17 9 -10 26 -14 40 -11 17 3
25 0 25 -9 0 -8 5 -14 10 -14 6 0 10 10 10 22 0 20 13 18 16 -3 1 -5 2 -13 3
-19 0 -5 8 -10 16 -10 8 0 23 -4 33 -10 9 -5 37 -16 62 -25 l45 -14 -25 19
c-14 11 -30 20 -36 20 -7 0 -22 8 -34 18 -20 16 -20 19 -7 31 16 12 34 5 168
-64 22 -11 26 -30 4 -21 -8 3 -22 3 -31 -1 -29 -11 26 -32 85 -33 48 0 53 2
48 20 -3 11 -1 20 4 20 5 0 9 25 9 55 l0 55 40 0 c33 0 40 3 40 20 0 11 5 20
10 20 6 0 10 23 10 50 0 49 1 50 30 50 17 0 30 5 30 10 0 6 18 10 40 10 22 0
40 5 40 10 0 6 13 10 29 10 16 0 32 6 34 13 4 9 8 8 17 -3 8 -11 13 -12 16 -3
5 12 26 17 117 27 37 4 47 3 47 -9 0 -11 -8 -13 -30 -8 -19 3 -30 1 -30 -6 0
-6 15 -11 33 -11 24 0 28 -3 17 -10 -8 -5 -50 -10 -92 -10 l-78 0 0 -60 c0
-33 4 -60 10 -60 6 0 10 -9 10 -20 0 -17 7 -20 50 -20 28 0 50 5 50 10 0 6 7
10 15 10 10 0 15 -10 15 -31 0 -46 15 -68 42 -61 13 3 28 13 35 21 11 14 12
14 13 -1 0 -12 8 -18 23 -18 17 0 19 2 7 10 -12 7 -10 11 10 18 22 9 23 11 8
17 -23 9 -23 21 3 48 15 15 23 18 26 10 5 -15 279 -19 285 -5 2 5 30 11 63 14
33 3 50 4 38 1 -13 -2 -23 -8 -23 -13 0 -4 9 -6 20 -3 15 4 20 0 20 -16 0 -12
6 -21 15 -21 11 0 13 8 8 33 -3 17 -10 34 -15 35 -4 2 -8 17 -8 32 0 27 -3 29
-42 33 -24 2 -5 4 42 4 47 0 70 -2 53 -4 -41 -5 -43 -23 -3 -23 23 0 30 -4 30
-20 0 -13 -7 -20 -20 -20 -13 0 -20 -7 -20 -20 0 -17 7 -20 50 -20 28 0 50 5
50 10 0 6 -4 10 -10 10 -5 0 -10 5 -10 10 0 13 117 13 122 0 5 -16 320 -18
325 -2 3 6 20 12 39 12 27 0 34 4 34 20 0 17 7 20 40 20 45 0 54 17 13 23 -16
2 2 2 40 -1 67 -5 67 -5 67 22 0 16 -5 26 -15 26 -8 0 -15 5 -15 10 0 6 -9 10
-19 10 -11 0 -23 5 -26 10 -3 6 -25 10 -48 10 -31 0 -38 -3 -27 -10 8 -5 11
-10 5 -10 -22 0 -35 18 -37 53 -2 20 -6 37 -10 37 -5 0 -8 18 -8 40 0 33 -3
40 -20 40 -14 0 -20 7 -20 23 0 18 5 23 22 22 12 -1 24 -7 26 -13 2 -7 15 -12
28 -12 13 0 24 -4 24 -10 0 -5 -4 -10 -10 -10 -5 0 -10 -9 -10 -20 0 -11 -6
-20 -12 -20 -7 0 -5 -5 5 -11 24 -14 40 -3 27 20 -11 21 5 41 33 41 10 0 25 7
33 15 17 17 71 20 76 5 2 -6 19 -7 48 -1 l45 9 -47 1 c-28 1 -48 6 -48 12 0 7
11 9 30 6 23 -5 28 -3 23 8 -3 9 1 15 11 15 9 0 16 8 16 20 0 16 -7 20 -30 20
-16 0 -30 5 -30 10 0 6 14 10 30 10 31 0 36 6 21 28 -7 11 -16 11 -52 1 -24
-7 -52 -11 -61 -10 -10 1 -18 -3 -18 -9 0 -7 -7 -9 -16 -6 -9 3 -32 -1 -51
-11 -22 -10 -37 -13 -41 -6 -4 5 -25 13 -47 16 -66 10 -71 12 -89 30 -21 21
-27 22 -20 2 4 -8 2 -16 -2 -16 -49 -8 -56 -5 -65 20 l-9 26 -261 0 c-169 1
-263 5 -267 11 -12 18 -209 29 -362 21z m328 -49 c2 -19 9 -28 22 -28 10 0 20
6 22 12 3 9 9 8 21 -4 9 -9 17 -19 17 -22 0 -3 -45 -6 -100 -6 -60 0 -100 -4
-100 -10 0 -15 -57 -12 -64 3 -5 10 -7 10 -12 0 -3 -7 -14 -13 -25 -13 -23 0
-24 -6 -5 -26 10 -9 37 -14 80 -14 l66 0 0 -60 0 -60 -40 0 c-33 0 -40 3 -40
20 0 19 -7 20 -96 20 -99 0 -124 -9 -124 -45 0 -15 -9 -17 -72 -12 -123 9
-132 14 -121 70 5 27 6 27 89 27 74 0 84 2 84 18 0 10 9 24 20 32 11 8 20 22
20 31 0 16 38 39 65 39 8 0 15 4 15 9 0 5 8 11 18 15 9 3 33 12 52 20 22 9 66
13 120 12 85 -1 85 -1 88 -28z m-894 -404 c12 -4 16 -20 16 -55 l0 -49 -80 0
c-47 0 -80 4 -80 10 0 6 -20 10 -45 10 -46 0 -53 8 -39 44 5 13 25 16 115 16
70 0 109 4 109 11 0 6 -24 9 -67 6 -47 -3 -56 -2 -28 3 56 10 81 11 99 4z"/>
<path d="M5460 2933 c0 -2 12 -15 26 -28 l25 -24 -22 -11 c-17 -10 -24 -9 -31
1 -7 11 -11 11 -15 2 -6 -15 -149 -18 -158 -4 -3 5 2 17 11 25 14 15 12 16
-26 16 -27 0 -39 -4 -34 -11 3 -6 15 -8 26 -6 14 4 18 1 14 -8 -3 -8 -1 -17 4
-20 6 -4 10 -17 10 -30 0 -48 9 -55 67 -55 30 0 63 -5 75 -11 11 -6 31 -8 44
-5 20 5 23 10 15 24 -8 15 -5 18 16 20 15 1 31 -5 38 -15 11 -14 16 -14 43 -2
31 13 42 29 22 29 -5 0 -10 9 -10 19 0 13 -8 21 -22 23 -13 2 -23 8 -23 13 0
6 10 11 23 13 12 2 22 8 22 13 0 5 8 9 18 10 14 0 14 2 -3 9 -11 4 -29 6 -40
4 -11 -3 -41 -1 -67 4 -27 5 -48 8 -48 5z"/>
<path d="M0 2343 l0 -570 92 -5 c68 -4 111 -1 167 12 42 10 137 28 211 40 74
12 182 30 240 40 104 19 175 29 490 71 140 18 238 36 370 65 13 3 27 10 31 15
3 6 21 8 41 4 22 -4 45 -2 59 5 12 7 45 14 73 15 28 1 52 8 54 14 2 6 21 11
42 11 44 0 135 17 165 30 11 5 38 11 60 13 82 10 226 35 296 53 30 8 65 14 77
14 11 0 25 7 30 16 5 9 12 12 15 7 9 -14 67 -3 67 13 0 17 36 19 43 2 4 -10 8
-10 14 -2 4 7 35 14 68 17 74 6 128 14 180 26 22 5 76 15 120 21 90 13 143 35
147 62 2 13 7 15 18 8 12 -8 13 -12 2 -19 -17 -11 6 -21 48 -21 40 0 47 17 10
25 -50 11 -36 29 17 21 54 -7 63 -13 43 -27 -11 -8 -6 -9 19 -5 18 3 55 6 82
6 38 0 49 4 49 16 0 9 6 14 13 11 22 -8 240 12 251 23 6 6 37 10 71 10 42 0
56 3 45 10 -13 8 -12 10 3 10 9 0 17 5 17 10 0 6 14 10 30 10 17 0 30 -4 30
-10 0 -5 20 -10 45 -10 33 0 45 4 45 15 0 12 12 15 57 13 46 -2 58 0 58 12 0
12 17 16 78 18 68 2 77 5 77 22 0 10 5 22 10 25 5 3 10 1 10 -5 0 -13 25 -40
37 -40 20 0 63 26 63 38 0 19 -48 15 -53 -5 -3 -10 -5 3 -6 30 l-1 47 50 -2
c30 -2 45 -6 37 -11 -9 -7 -9 -10 1 -14 6 -2 12 -13 12 -23 0 -17 6 -18 53
-13 63 7 74 13 24 13 -21 0 -37 5 -37 10 0 6 28 10 63 10 39 1 69 6 81 15 11
8 29 15 40 15 18 0 19 2 6 11 -12 8 -8 9 15 8 17 -1 37 1 45 4 26 9 83 27 88
27 2 0 2 -7 -2 -15 -7 -20 15 -19 53 3 39 21 39 32 2 32 -16 0 -32 6 -34 13
-4 9 -8 8 -16 -3 -5 -8 -14 -11 -18 -6 -4 5 -2 11 5 13 8 3 12 26 12 64 0 52
-2 59 -20 59 -11 0 -20 5 -20 10 0 6 7 10 15 10 8 0 15 5 15 10 0 6 5 10 11
10 14 0 39 -26 39 -41 0 -7 6 -4 15 7 8 10 15 29 15 41 0 12 8 24 18 26 9 3 3
5 -15 6 -17 0 -35 -4 -39 -10 -3 -6 -16 -8 -28 -5 -28 7 -66 -19 -66 -45 0
-16 -7 -19 -40 -19 -32 0 -40 4 -40 18 0 10 -5 23 -12 30 -9 9 -8 12 7 12 10
0 16 2 13 5 -3 3 -52 -2 -109 -10 -232 -33 -576 -75 -839 -100 -85 -9 -209
-22 -275 -30 -66 -8 -194 -19 -285 -25 -91 -6 -201 -17 -245 -25 -271 -50
-426 -72 -555 -80 -114 -6 -166 -13 -159 -20 15 -14 423 -71 749 -105 102 -11
226 -24 275 -30 50 -5 93 -10 98 -10 4 0 7 -4 7 -10 0 -13 -36 -31 -72 -37
-31 -5 -137 14 -154 28 -5 4 -54 10 -107 11 -53 2 -97 7 -97 12 0 5 -30 6 -69
2 -42 -3 -72 -2 -76 4 -3 5 -16 9 -28 8 -12 -1 -42 2 -67 6 -32 5 -41 4 -30
-3 12 -9 9 -11 -13 -11 -16 0 -26 4 -22 10 3 6 -4 10 -16 10 -13 0 -55 8 -93
19 -39 10 -102 24 -141 30 -38 7 -110 21 -160 32 -49 10 -112 23 -140 28 -283
55 -377 74 -415 86 -68 22 -248 57 -315 61 -67 5 -167 19 -295 41 -163 28
-243 44 -251 48 -6 4 -103 24 -194 39 -16 3 -123 21 -238 40 -114 20 -237 38
-272 42 l-65 7 0 -570z m4640 387 l0 -70 -30 0 c-27 0 -30 -3 -30 -30 0 -29
-1 -30 -50 -30 -43 0 -50 3 -50 20 0 17 7 20 40 20 38 0 40 2 40 29 0 28 -3
30 -42 33 l-43 4 43 8 c35 7 42 12 42 32 0 13 -3 24 -7 24 -16 0 -38 -20 -38
-32 0 -16 -63 -12 -83 5 -10 8 -16 7 -22 -2 -5 -8 -16 -11 -30 -6 -31 10 -20
16 41 22 30 3 67 11 83 19 34 16 66 18 66 4 0 -6 12 -4 28 4 15 8 30 15 35 16
4 0 7 -31 7 -70z"/>
<path d="M16838 2843 c64 -6 51 -28 -15 -26 -7 1 -13 -10 -13 -23 0 -16 4 -22
14 -18 8 3 22 -9 35 -31 25 -43 27 -61 6 -69 -11 -4 -14 -13 -9 -31 5 -19 2
-25 -10 -25 -9 0 -16 -4 -16 -10 0 -5 16 -10 36 -10 19 0 42 -7 51 -16 9 -8
25 -14 37 -14 28 3 66 -10 66 -21 0 -5 10 -9 23 -9 13 0 27 -4 33 -9 5 -6 42
-21 83 -34 67 -21 72 -25 57 -40 -9 -8 -16 -21 -16 -27 0 -8 -11 -11 -28 -8
-16 2 -34 -2 -41 -9 -6 -7 -24 -15 -39 -18 -15 -3 -40 -12 -55 -20 -32 -17
-61 -20 -37 -5 13 8 12 10 -2 10 -10 0 -18 -5 -18 -11 0 -6 -7 -8 -15 -5 -16
6 -21 4 -82 -28 -19 -10 -55 -16 -97 -16 -36 0 -66 -4 -66 -9 0 -14 -51 -23
-65 -11 -9 7 -21 7 -39 0 -35 -13 -86 -13 -86 0 0 6 -12 10 -27 10 -20 0 -24
-3 -14 -9 14 -9 10 -13 -34 -36 -28 -15 -143 -11 -158 5 -10 10 -3 11 31 6 39
-6 42 -5 29 8 -12 12 -30 14 -82 9 -38 -3 -61 -9 -54 -14 7 -4 17 -5 21 -3 5
3 11 -2 15 -11 3 -10 1 -20 -6 -24 -7 -4 -13 -17 -14 -29 -2 -34 -41 -34 -61
0 -16 26 -22 28 -79 28 -69 0 -83 -6 -88 -35 -3 -16 -14 -21 -54 -25 -69 -7
-95 -1 -95 20 0 10 6 21 13 24 15 6 -66 6 -110 -1 -29 -5 -33 -9 -33 -34 0
-29 -14 -39 -23 -16 -4 9 -8 9 -15 -2 -8 -11 -10 -11 -14 0 -4 11 -7 10 -20
-1 -14 -14 -14 -16 6 -27 20 -12 19 -12 -11 -13 -23 0 -33 5 -33 15 0 8 -7 15
-15 15 -8 0 -15 5 -15 10 0 6 7 10 15 10 20 0 19 16 -1 24 -20 8 -62 -3 -92
-22 -16 -11 -52 -15 -118 -16 -90 -1 -94 -2 -94 -23 0 -20 4 -22 43 -19 23 2
32 2 20 -1 -13 -2 -23 -9 -23 -14 0 -14 -138 -11 -143 4 -2 6 -8 8 -13 4 -5
-4 -2 -12 5 -17 12 -7 12 -11 -2 -24 -8 -9 -24 -16 -35 -16 -24 0 -38 30 -20
41 7 4 9 11 5 16 -5 4 -11 2 -15 -4 -10 -15 -62 -4 -62 14 0 11 -18 14 -91 12
l-90 -2 -6 -28 c-5 -25 -10 -29 -39 -29 -19 0 -34 5 -34 10 0 14 -49 12 -64
-3 -17 -17 3 -37 37 -37 15 0 28 -8 35 -24 12 -26 50 -36 144 -36 31 0 67 -4
80 -9 13 -5 102 -17 198 -26 96 -9 202 -20 235 -26 33 -5 139 -18 235 -29 96
-11 207 -27 245 -36 39 -8 102 -19 140 -24 39 -5 124 -19 190 -30 204 -35 226
-39 349 -55 66 -9 145 -25 175 -36 50 -17 66 -18 151 -9 273 29 411 41 570 50
96 6 189 12 205 15 17 2 95 9 175 15 80 6 172 15 205 20 33 5 150 16 260 25
110 8 234 20 275 25 41 5 184 20 318 32 l242 22 0 158 0 157 -42 12 c-24 6
-51 15 -60 20 -10 5 -25 9 -34 9 -9 0 -30 7 -47 14 -18 8 -95 31 -172 51 -77
21 -154 43 -172 50 -31 13 -46 16 -148 31 -27 3 -57 10 -65 14 -8 5 -28 10
-45 13 -16 2 -61 12 -100 21 -296 71 -474 123 -720 211 -55 20 -134 47 -176
60 -41 14 -104 38 -140 53 -37 17 -92 32 -129 36 -36 3 -101 11 -145 16 -44 5
-109 8 -145 8 -47 -1 -53 -3 -22 -5z"/>
<path d="M18959 2816 c-5 -5 -708 -25 -979 -28 -118 -1 -303 1 -410 5 -141 5
-185 4 -160 -4 19 -5 49 -17 67 -25 17 -7 34 -14 38 -14 4 0 21 -7 38 -15 54
-24 372 -129 422 -138 11 -2 27 -6 35 -9 8 -3 53 -16 100 -28 47 -12 105 -28
130 -35 25 -8 72 -19 105 -25 79 -15 331 -79 364 -92 14 -5 53 -14 86 -18 33
-5 69 -11 80 -13 11 -3 51 -8 89 -12 53 -6 70 -12 73 -25 3 -12 19 -19 51 -23
26 -3 62 -9 80 -13 l32 -6 0 261 0 261 -118 0 c-65 0 -121 -2 -123 -4z"/>
<path d="M4965 2802 c-10 -10 -5 -142 5 -142 6 0 10 -4 10 -10 0 -5 -9 -10
-20 -10 -11 0 -20 -5 -20 -11 0 -6 9 -8 20 -5 11 3 29 9 40 12 13 3 20 14 20
30 0 18 5 24 23 24 17 0 19 2 8 9 -12 8 -12 12 2 25 8 9 25 16 37 16 23 0 56
27 46 37 -3 3 -31 5 -61 4 -30 -1 -55 3 -55 8 0 10 -47 21 -55 13z"/>
<path d="M5260 2633 l-34 -5 24 -19 c20 -15 22 -19 8 -19 -10 0 -18 5 -18 11
0 5 -4 7 -10 4 -5 -3 -10 -1 -10 4 0 6 -7 11 -15 11 -8 0 -15 -7 -15 -15 0 -8
-7 -15 -15 -15 -8 0 -15 5 -15 10 0 12 -40 13 -55 2 -5 -4 -11 -16 -13 -27 -7
-55 -12 -58 -47 -45 -27 10 -27 11 -10 30 16 18 16 20 2 20 -9 0 -19 -5 -23
-11 -4 -6 -20 -8 -40 -4 -21 3 -34 2 -34 -5 0 -5 -10 -10 -22 -10 -13 0 -35
-7 -50 -14 -16 -8 -45 -17 -65 -21 -21 -3 -55 -8 -75 -12 -25 -3 -40 -12 -44
-25 -4 -13 -11 -17 -25 -13 -13 4 -19 2 -19 -9 0 -9 -7 -16 -15 -16 -8 0 -15
-4 -15 -8 0 -10 -68 -15 -180 -14 -45 0 -65 -3 -50 -7 17 -5 21 -9 12 -15 -17
-10 -15 -36 3 -36 9 0 15 -9 14 -22 0 -13 -3 -17 -6 -10 -2 6 -20 12 -39 12
-24 0 -34 5 -34 15 0 8 8 15 18 15 14 0 15 2 2 10 -19 12 -80 13 -80 1 0 -4
-27 -11 -61 -14 -48 -4 -65 -10 -84 -32 -21 -22 -32 -26 -72 -24 -27 1 -53 6
-58 10 -13 10 -95 -1 -95 -12 0 -5 -13 -9 -30 -9 -16 0 -30 5 -30 10 0 14 -33
12 -54 -3 -12 -9 -35 -11 -71 -7 -30 3 -51 2 -49 -2 3 -4 -21 -8 -53 -8 -78 0
-223 -21 -223 -32 0 -5 -5 -6 -11 -3 -12 8 -201 -12 -239 -25 -14 -5 -47 -12
-74 -15 l-49 -7 31 -15 c36 -17 40 -28 15 -37 -9 -4 -25 2 -38 14 -12 11 -32
20 -46 21 l-24 1 25 8 25 8 -27 1 c-15 1 -30 -3 -33 -9 -3 -5 -20 -9 -38 -8
-18 0 -50 -4 -72 -10 -22 -6 -71 -14 -108 -18 -37 -4 -70 -11 -73 -15 -3 -5
-24 -10 -47 -11 l-42 -1 40 -7 c33 -7 30 -7 -20 -5 -33 2 -80 -1 -105 -5 -118
-23 -249 -51 -294 -63 -28 -8 -69 -15 -91 -16 -37 -1 -70 -10 -120 -32 -11 -4
-58 -13 -103 -19 -46 -6 -96 -16 -110 -22 -15 -6 -37 -10 -48 -9 -12 1 -71 -7
-130 -18 -60 -11 -130 -20 -155 -20 -53 0 -156 -15 -246 -36 -35 -8 -86 -15
-115 -16 -59 -1 -209 -22 -308 -44 -36 -7 -94 -18 -130 -24 -82 -13 -213 -37
-310 -58 -82 -17 -164 -31 -255 -41 l-60 -7 -3 -294 -2 -293 77 7 c43 4 80 10
83 15 5 7 77 16 232 27 49 3 88 9 88 13 0 4 39 10 87 14 79 5 280 23 293 25 3
1 0 5 -7 9 -6 4 20 8 57 9 40 1 81 8 100 18 17 9 37 14 44 12 17 -7 189 22
200 33 6 6 25 10 44 10 45 0 176 22 182 30 3 4 21 10 40 13 48 7 268 56 306
68 17 5 40 9 52 9 11 0 23 3 26 8 2 4 37 9 77 11 40 1 81 7 90 12 10 5 29 9
44 9 15 0 24 4 20 10 -4 6 10 10 34 10 24 0 41 5 41 11 0 7 10 9 24 7 16 -3
27 0 31 10 4 10 9 11 18 3 8 -6 24 -8 38 -5 13 3 41 7 63 10 21 3 48 12 60 20
13 8 57 16 104 18 44 2 87 8 94 12 7 5 20 9 28 11 8 1 16 7 18 12 2 6 19 11
38 11 19 0 34 5 34 11 0 6 9 9 20 6 11 -3 20 -1 20 5 0 6 9 8 21 5 19 -5 31
-2 94 24 11 4 40 10 64 12 24 3 46 9 50 13 3 5 32 10 64 11 33 1 65 7 73 14 7
6 20 9 29 6 8 -4 21 0 29 8 8 8 26 15 40 15 14 0 28 5 31 10 4 6 16 8 27 4 14
-4 18 -3 13 6 -5 8 3 9 29 5 24 -5 36 -3 36 4 0 6 15 11 33 12 30 1 31 1 7 9
-20 6 -14 8 30 10 30 1 59 2 64 1 4 -1 15 4 23 11 8 6 39 13 69 15 49 3 117
21 86 22 -7 1 -11 5 -7 10 3 5 22 7 43 5 29 -5 34 -3 22 6 -12 9 -9 11 18 7
17 -2 32 0 32 5 0 5 10 6 21 3 12 -4 31 -3 43 3 11 5 32 14 46 20 14 6 45 13
70 15 24 3 46 9 48 16 2 6 23 11 46 11 28 0 49 7 64 20 15 14 35 20 67 20 25
0 45 5 45 11 0 5 13 15 30 20 39 14 29 29 -14 22 -19 -3 -36 -1 -40 6 -5 7 2
11 16 12 64 3 -72 18 -172 19 -197 2 -196 2 -202 61 -2 26 -8 35 -24 37 -18 3
-21 10 -21 42 0 22 4 37 8 34 5 -3 9 0 9 5 0 6 9 11 20 11 11 0 20 -4 20 -10
0 -5 17 -10 39 -10 30 0 40 -4 44 -20 3 -11 1 -20 -4 -20 -5 0 -9 -4 -9 -10 0
-5 11 -10 25 -10 14 0 25 5 25 10 0 6 -4 10 -10 10 -5 0 -10 5 -10 10 0 15 16
12 34 -5 16 -17 30 -20 21 -6 -3 6 16 13 42 16 87 11 103 16 117 36 11 16 21
19 53 13 26 -4 43 -2 47 5 4 6 27 11 52 11 34 0 44 4 44 16 0 12 6 15 23 11
12 -2 33 -1 47 3 23 7 23 8 -8 9 -19 1 -31 5 -27 11 3 6 1 10 -4 10 -6 0 -11
5 -11 10 0 6 16 10 35 10 29 0 36 -4 41 -26 6 -23 10 -25 38 -20 27 6 43 19
34 29 -2 2 5 11 14 20 21 22 48 22 48 1 0 -13 7 -15 38 -10 20 4 46 8 58 9 33
5 86 29 106 49 20 20 38 24 38 8 0 -18 18 -11 25 10 7 22 31 27 38 8 3 -10 9
-10 26 0 11 6 35 13 53 13 32 1 32 2 6 8 -16 3 -24 10 -20 16 12 17 34 16 49
-2 10 -13 16 -15 19 -5 3 6 16 12 29 12 13 0 30 6 37 13 7 8 35 17 62 20 27 4
57 14 66 22 9 8 25 15 35 15 32 0 124 33 118 43 -3 5 5 7 18 6 31 -4 50 8 42
26 -4 12 -24 15 -97 13 -50 0 -107 -3 -126 -5z"/>
<path d="M6070 2531 c0 -6 -8 -11 -18 -11 -9 0 -41 -9 -70 -19 -28 -11 -61
-17 -72 -14 -11 3 -20 1 -20 -4 0 -6 -25 -15 -55 -22 -30 -7 -55 -17 -55 -23
0 -7 -13 -8 -35 -5 -22 4 -46 0 -63 -9 -22 -11 -24 -14 -7 -14 13 0 4 -8 -23
-20 -40 -18 -78 -18 -66 1 7 12 -29 -2 -37 -14 -4 -5 -24 -9 -45 -10 -22 0
-31 -2 -21 -4 9 -3 17 -13 17 -24 0 -14 -7 -19 -29 -19 -17 0 -33 5 -36 10 -3
6 -1 10 6 10 7 0 10 2 8 5 -8 7 -111 -21 -164 -45 -42 -20 -47 -24 -30 -31 14
-5 6 -8 -28 -8 -27 -1 -57 -6 -68 -12 -15 -7 -24 -7 -34 1 -24 20 -75 -9 -75
-42 0 -15 4 -30 10 -33 5 -3 56 -8 112 -10 167 -5 261 -16 287 -33 23 -14 24
-15 6 -28 -23 -17 -6 -19 43 -5 19 6 42 6 55 1 20 -8 20 -9 -11 -16 -18 -3
-35 -11 -38 -15 -3 -5 -27 -9 -55 -9 -27 0 -49 -4 -49 -10 0 -5 -7 -10 -16
-10 -8 0 -13 4 -10 8 2 4 -25 5 -61 1 -36 -4 -69 -12 -73 -19 -4 -7 -12 -10
-18 -6 -6 3 -13 2 -17 -4 -4 -6 -11 -7 -17 -4 -7 4 -7 9 0 13 8 4 8 11 1 21
-8 11 -12 12 -16 3 -2 -7 -13 -13 -24 -13 -11 0 -27 -4 -37 -9 -9 -5 -25 -12
-34 -15 -10 -3 -18 -14 -18 -25 0 -11 8 -22 18 -24 9 -3 2 -5 -16 -6 -30 -1
-32 1 -26 26 l7 27 -37 -22 c-20 -12 -44 -22 -52 -22 -8 0 -12 -5 -9 -10 4 -6
11 -8 16 -5 5 4 9 1 9 -4 0 -6 -11 -11 -24 -11 -13 0 -29 -7 -36 -15 -18 -21
-38 -19 -45 6 -4 13 -12 18 -22 15 -8 -3 -20 -6 -26 -6 -7 0 -18 -13 -25 -30
-15 -32 -33 -38 -51 -16 -9 11 -9 15 1 20 7 3 4 5 -7 3 -12 -1 -21 -11 -23
-25 -3 -20 6 -27 31 -23 4 0 7 -3 7 -8 0 -14 -52 -23 -63 -12 -6 6 -18 11 -27
11 -13 0 -13 -1 0 -10 12 -8 11 -10 -7 -10 -12 0 -34 5 -49 10 -16 6 -52 8
-88 4 -45 -6 -54 -9 -36 -14 38 -9 7 -22 -37 -15 -21 3 -32 2 -25 -1 6 -3 10
-10 6 -15 -3 -5 7 -9 22 -9 22 0 25 -2 14 -15 -14 -17 -38 -19 -60 -5 -13 9
-13 11 0 21 22 15 -132 4 -162 -12 -12 -7 -41 -16 -63 -20 -22 -4 -62 -16 -90
-27 -84 -34 -148 -52 -182 -52 -17 0 -35 -4 -38 -10 -3 -5 -21 -10 -38 -10
-18 -1 -50 -9 -72 -20 -22 -11 -53 -19 -68 -20 -15 0 -44 -7 -64 -15 -19 -8
-47 -15 -62 -15 -15 0 -36 -7 -49 -15 -12 -9 -27 -15 -34 -14 -28 6 -97 -13
-102 -28 -4 -11 -10 -12 -19 -5 -12 10 -39 9 -92 -2 -146 -32 -281 -56 -315
-56 -22 0 -40 -4 -40 -8 0 -5 -14 -7 -30 -4 -17 2 -30 0 -30 -6 0 -5 -19 -10
-43 -10 -24 -1 -56 -6 -71 -12 -15 -5 -42 -10 -61 -10 -19 0 -63 -7 -100 -15
-36 -9 -139 -27 -228 -40 -89 -14 -175 -28 -192 -31 -42 -8 -65 -11 -100 -13
-26 -2 -27 -4 -10 -10 15 -7 8 -10 -30 -14 -181 -20 -240 -28 -306 -42 -41 -8
-84 -15 -96 -15 -13 0 -23 -5 -23 -11 0 -6 -20 -10 -48 -9 -47 1 -104 -6 -132
-17 -8 -4 -21 -5 -29 -4 -8 1 -57 -5 -110 -14 -53 -9 -127 -21 -166 -27 -38
-5 -83 -14 -100 -18 -16 -4 -91 -13 -165 -20 -74 -6 -148 -13 -165 -16 -16 -3
-84 -10 -150 -14 -66 -5 -145 -14 -175 -20 -30 -6 -109 -14 -175 -16 -66 -3
-133 -8 -150 -13 l-30 -7 -3 -88 -3 -89 633 7 c871 9 1132 21 1783 80 209 20
468 40 575 46 163 8 562 34 855 54 39 3 149 10 245 16 165 10 545 52 780 85
58 8 150 20 205 25 55 6 177 20 270 31 196 23 316 35 464 49 156 14 366 39
382 45 8 2 61 9 119 15 171 16 612 59 655 64 22 3 78 8 125 11 47 3 105 8 130
10 25 3 96 9 158 14 62 6 116 12 121 15 4 3 63 6 132 7 129 1 163 5 389 38
182 27 414 58 530 71 105 12 187 25 300 47 41 8 104 19 140 23 114 16 141 20
264 46 67 13 186 33 266 43 163 22 290 47 304 61 7 7 5 10 -4 11 -10 0 -7 4 5
9 15 6 8 9 -27 9 -43 1 -48 4 -49 24 0 12 -3 16 -6 10 -2 -7 -11 -13 -20 -13
-25 0 -43 27 -43 64 0 33 -2 36 -30 36 -21 0 -30 -5 -30 -16 0 -17 -23 -44
-38 -44 -5 0 -23 7 -41 16 -17 9 -38 14 -45 11 -10 -4 -12 0 -9 14 3 10 14 19
24 19 14 0 21 9 26 30 4 25 10 30 34 30 16 0 29 5 29 13 1 7 7 4 15 -7 21 -27
65 -14 65 19 0 22 -4 25 -34 25 -44 0 -66 -9 -66 -26 0 -18 -30 -18 -66 1 -34
17 -54 19 -54 5 0 -5 -9 -10 -20 -10 -11 0 -20 -4 -20 -10 0 -5 5 -10 10 -10
6 0 10 -9 10 -20 0 -13 -7 -20 -18 -20 -10 0 -23 -5 -30 -12 -9 -9 -12 -9 -12
0 0 7 -7 12 -15 12 -10 0 -15 11 -16 33 0 17 -3 26 -6 20 -2 -7 -13 -13 -24
-13 -13 0 -19 -7 -19 -21 0 -18 -4 -20 -27 -15 -16 4 -47 9 -70 13 -33 4 -43
10 -43 24 0 14 -7 19 -29 19 -33 0 -47 25 -36 60 6 20 25 28 25 11 0 -5 9 -7
20 -4 11 3 20 12 20 19 0 8 8 14 18 14 19 1 -49 35 -91 45 -21 6 -27 4 -27 -9
0 -12 -10 -16 -40 -16 -38 0 -40 -2 -40 -30 0 -29 1 -30 50 -30 43 0 50 -3 50
-20 0 -17 -6 -19 -40 -17 -22 1 -40 6 -40 10 0 5 -4 6 -9 2 -5 -3 -33 3 -63
14 -29 11 -62 22 -73 24 -18 4 -18 5 3 6 18 1 22 7 22 31 0 17 -4 30 -10 30
-5 0 -10 5 -10 11 0 6 7 9 15 5 8 -3 25 -2 37 3 21 8 20 9 -12 16 -23 5 -35 4
-38 -4 -2 -6 -11 -11 -20 -11 -10 0 -26 -11 -36 -25 l-19 -25 -51 27 c-28 15
-59 34 -69 42 -14 12 -23 12 -57 1 -36 -12 -43 -11 -94 14 -30 15 -56 32 -58
38 -3 7 -25 11 -55 10 -37 -1 -56 4 -71 19 -12 10 -27 19 -35 19 -13 0 -59 19
-100 41 -10 5 -91 11 -180 11 -147 2 -153 3 -67 8 89 6 85 7 -60 8 -205 3
-191 0 -174 28 14 20 13 23 -5 29 -11 3 -37 5 -58 4 -21 -1 -54 2 -74 6 -22 4
-39 3 -43 -4 -4 -6 -19 -5 -43 6 -44 18 -112 12 -129 -12 -10 -14 -22 -15 -71
-9 -43 5 -53 9 -38 15 15 6 16 8 4 8 -15 1 -34 27 -31 43 1 3 -27 4 -61 2 -38
-3 -55 -1 -43 4 17 8 18 9 3 15 -9 3 -29 0 -44 -8 -15 -8 -37 -12 -48 -9 -16
4 -17 3 -5 -5 17 -11 14 -16 -16 -25 -17 -5 -27 0 -43 20 -12 15 -24 25 -27
22 -3 -3 2 -13 11 -22 13 -13 14 -16 2 -16 -7 0 -20 11 -27 25 -7 14 -20 26
-29 26 -9 1 0 5 19 10 22 5 -8 6 -81 4 -81 -4 -119 -1 -127 7 -9 9 -12 9 -12
1 0 -19 -69 -10 -76 10 -6 18 -24 24 -24 6 0 -13 -42 -8 -52 6 -4 6 -8 0 -8
-12 0 -25 -35 -33 -43 -10 -3 9 -11 8 -33 -4 -22 -13 -35 -14 -54 -7 -59 24
-340 48 -340 29z"/>
<path d="M12860 2313 c-154 -64 -178 -73 -200 -73 -17 0 -20 -4 -15 -17 4 -10
10 -28 12 -40 4 -18 12 -23 34 -23 16 0 29 5 29 10 0 6 18 10 40 10 28 0 40 4
40 15 0 18 72 34 78 16 2 -7 38 -11 107 -11 95 0 104 2 110 20 4 12 15 20 28
20 20 0 19 3 -11 29 -17 17 -32 37 -32 45 0 46 -108 46 -220 -1z"/>
<path d="M13540 2220 c0 -15 -8 -22 -29 -26 -23 -5 -30 -13 -33 -35 -5 -35 -2
-39 29 -39 14 0 23 -6 23 -16 0 -22 35 -64 68 -81 34 -19 125 -43 160 -43 27
0 122 -29 158 -48 10 -5 44 -20 74 -32 30 -12 101 -44 158 -72 100 -49 144
-85 121 -99 -7 -4 -4 -9 9 -13 19 -6 35 -39 24 -50 -3 -3 -14 -6 -24 -6 -15 0
-19 -6 -16 -27 2 -22 17 -35 73 -68 103 -60 212 -116 370 -187 77 -34 166 -77
199 -95 32 -18 69 -36 81 -39 38 -9 67 -42 55 -62 -23 -40 -39 -52 -81 -57
-68 -10 -129 -28 -129 -40 0 -6 -16 -19 -35 -29 -19 -11 -35 -22 -35 -25 0 -4
-9 -7 -20 -8 -12 -1 -20 4 -20 14 0 11 -5 13 -17 8 -10 -4 -38 -15 -63 -23
-25 -8 -54 -19 -65 -23 -11 -4 -29 -10 -40 -12 -19 -5 -19 -5 3 -12 43 -14 15
-67 -30 -58 -21 4 -28 11 -28 29 0 22 -2 23 -27 11 -20 -9 -23 -13 -10 -15 11
-2 17 -13 17 -33 0 -24 4 -29 25 -29 14 0 25 -4 25 -10 0 -10 -21 -14 -47 -11
-7 1 -13 -3 -13 -9 0 -5 -9 -10 -19 -10 -11 0 -27 -7 -35 -16 -12 -12 -38 -16
-104 -17 -48 -1 -68 -3 -44 -5 23 -2 42 -8 42 -13 0 -6 -4 -7 -10 -4 -5 3 -10
2 -10 -3 0 -5 -14 -7 -30 -4 -17 2 -36 0 -43 -6 -6 -5 -22 -8 -34 -6 -13 2
-23 -1 -23 -7 0 -6 -9 -8 -20 -4 -12 4 -20 2 -20 -5 0 -6 -21 -10 -56 -9 -36
1 -59 -2 -64 -10 -11 -18 -54 -9 -58 11 -3 14 3 18 27 18 16 0 33 5 36 10 7
11 -29 12 -90 2 -31 -5 -40 -11 -40 -27 0 -26 -47 -29 -51 -2 -1 9 3 17 9 17
5 0 7 3 4 7 -4 3 -16 -2 -28 -13 -16 -14 -33 -18 -74 -16 -30 1 -56 -2 -59 -7
-3 -5 -15 -7 -27 -4 -12 4 -25 0 -31 -8 -6 -10 -11 -10 -14 -3 -3 8 -34 10
-97 7 -73 -3 -95 -8 -109 -23 -10 -11 -18 -25 -18 -32 0 -9 -3 -9 -10 2 -5 8
-10 10 -10 5 0 -6 -39 -11 -90 -13 -60 -2 -90 0 -90 7 0 6 12 11 28 11 15 0
34 5 42 11 11 8 0 9 -40 4 -30 -3 -56 -10 -58 -14 -1 -4 -17 -6 -35 -4 -17 2
-26 0 -19 -3 18 -8 15 -32 -5 -37 -14 -4 -13 -5 4 -6 12 0 26 7 32 16 9 17 10
17 28 0 11 -9 25 -17 32 -17 19 0 2 -20 -26 -31 -17 -6 -30 -6 -39 2 -7 6 -18
8 -25 4 -6 -4 -15 -1 -20 6 -8 12 -10 12 -18 0 -8 -12 -12 -12 -25 -2 -11 9
-16 10 -16 2 0 -6 -4 -11 -10 -11 -5 0 -10 6 -10 14 0 8 -6 17 -12 20 -10 3
-8 9 5 19 17 14 16 15 -2 20 -18 4 -65 -23 -58 -34 1 -2 -2 -1 -7 3 -15 12
-74 9 -78 -4 -3 -8 -25 -11 -66 -9 -39 1 -62 -2 -62 -8 0 -6 -9 -11 -20 -11
-11 0 -20 5 -20 10 0 7 -6 7 -19 0 -11 -5 -33 -10 -50 -10 -16 0 -34 -6 -38
-14 -14 -23 -103 -56 -153 -56 -26 0 -67 9 -91 19 -24 11 -46 16 -49 11 -5 -8
-29 -6 -84 6 -18 4 -31 2 -36 -6 -5 -8 -26 -12 -56 -10 -143 6 -196 5 -201 -4
-4 -5 -1 -12 5 -14 7 -2 12 -12 12 -23 0 -14 -7 -19 -25 -19 -18 0 -25 5 -25
19 0 11 6 22 13 24 15 6 -162 12 -253 8 -323 -12 -852 -19 -940 -11 -270 24
-400 31 -419 21 -11 -6 -26 -8 -34 -5 -8 3 -44 -9 -80 -25 -37 -17 -77 -33
-91 -37 -32 -8 -69 4 -62 21 4 10 -2 11 -27 4 -18 -5 -50 -9 -72 -9 -22 0 -49
-7 -59 -15 -17 -13 -18 -15 -3 -15 10 0 17 -8 17 -19 0 -15 8 -21 33 -24 19
-2 10 -4 -25 -5 -37 -1 -58 2 -58 9 0 6 7 9 15 5 8 -3 15 -1 15 4 0 6 -7 10
-15 10 -8 0 -23 9 -32 20 -19 22 -50 26 -85 10 -13 -6 -68 -14 -123 -19 l-100
-8 138 -2 c84 0 137 -5 137 -11 0 -6 -57 -10 -150 -10 -93 0 -150 -4 -150 -10
0 -5 -8 -10 -17 -11 -16 0 -16 -1 1 -8 18 -7 18 -8 2 -14 -10 -4 -41 -7 -69
-7 l-52 1 30 14 c17 7 26 14 20 15 -5 1 -1 6 10 11 15 7 10 8 -22 6 -23 -1
-39 1 -36 6 3 5 -39 7 -94 5 -54 -1 -194 2 -310 6 -230 10 -222 7 -206 64 4
18 8 20 14 10 6 -10 45 -13 156 -14 81 -1 193 -5 248 -9 58 -4 96 -4 92 1 -5
5 -34 9 -64 9 -38 0 -58 4 -61 13 -3 11 16 13 104 9 60 -3 126 -9 147 -12 47
-9 136 3 116 15 -7 5 -11 11 -9 14 8 7 127 8 185 2 28 -4 84 0 125 8 49 9 63
15 41 15 -60 2 -25 13 40 13 34 0 56 3 50 8 -20 12 13 20 80 20 33 0 59 -4 59
-10 0 -5 9 -10 21 -10 11 0 17 5 14 10 -4 6 16 10 53 10 51 0 60 3 65 20 5 20
27 28 27 10 0 -5 14 -10 30 -10 23 0 30 5 30 19 0 10 7 24 15 31 11 10 18 9
30 -3 11 -12 12 -17 2 -20 -6 -3 -2 -6 11 -6 16 -1 22 5 22 19 0 23 3 24 31 8
17 -10 23 -10 26 0 6 16 60 16 66 0 3 -9 27 -13 83 -12 53 1 72 -1 59 -7 -13
-5 5 -7 50 -4 39 3 140 7 225 10 91 3 156 9 158 15 2 6 40 10 88 10 54 0 83
-4 79 -10 -4 -6 10 -10 35 -10 25 0 39 4 35 10 -3 6 1 10 9 10 9 0 16 5 16 10
0 6 -6 10 -12 10 -9 0 -8 4 2 10 14 10 147 6 246 -6 36 -4 41 -8 37 -24 -5
-18 0 -20 60 -20 52 0 66 3 69 16 3 19 98 32 98 14 0 -12 37 -13 44 -1 4 5 -3
7 -14 4 -15 -4 -20 0 -20 13 0 15 2 16 9 5 8 -12 12 -12 25 -2 14 11 16 11 16
-4 0 -15 8 -16 66 -9 43 4 73 13 85 25 16 16 16 18 1 22 -12 3 -10 5 6 6 12 0
22 -3 22 -9 0 -5 22 -10 49 -10 28 0 53 5 56 10 3 6 27 10 53 10 34 0 43 3 32
10 -11 7 -11 10 -2 10 7 0 10 5 7 10 -4 6 -1 17 5 25 10 12 9 15 -4 15 -9 0
-16 4 -16 9 0 5 44 10 98 11 53 0 118 2 145 3 26 1 49 -2 51 -8 3 -6 8 -4 14
3 10 14 18 15 109 8 54 -4 133 12 145 28 3 5 67 8 142 7 91 -2 136 1 136 8 0
7 -22 11 -52 11 -28 0 -49 2 -46 5 10 10 138 16 138 6 0 -5 -6 -12 -12 -15 -7
-3 16 -3 52 0 36 4 68 11 71 16 3 5 15 9 25 8 43 -5 94 1 94 10 0 6 -8 10 -17
11 -15 0 -15 2 2 8 14 6 22 4 26 -8 6 -14 8 -14 14 2 9 22 37 23 28 0 -5 -14
-1 -15 33 -10 21 4 48 7 59 7 20 1 20 1 1 15 -11 8 -16 18 -12 22 4 4 11 1 16
-7 8 -13 12 -12 24 5 9 11 16 26 16 33 0 21 40 14 40 -8 0 -11 4 -20 9 -20 5
0 18 -3 28 -7 17 -7 17 -6 1 11 -10 9 -18 25 -18 34 1 16 2 16 14 0 7 -10 22
-18 32 -18 22 0 57 20 36 20 -7 0 -10 5 -7 10 9 15 25 12 25 -4 0 -18 54 -6
56 12 1 7 2 17 3 22 0 6 6 10 12 10 5 0 7 -4 4 -10 -3 -5 1 -10 9 -10 9 0 13
6 10 14 -3 8 5 22 18 31 l23 17 -22 -7 c-21 -6 -23 -3 -23 29 l0 36 74 0 c40
0 88 3 105 6 28 6 31 4 31 -20 0 -18 5 -26 18 -26 22 0 116 33 120 43 2 4 22
7 45 8 24 0 35 3 27 7 -44 20 -70 46 -70 69 0 31 30 83 47 83 16 0 16 -1 2 41
-11 32 -40 69 -55 69 -4 0 -13 8 -20 18 -8 10 -13 12 -14 5 0 -19 -23 -16 -47
6 -19 19 -21 19 -36 1 -14 -16 -14 -19 0 -24 8 -3 23 -6 33 -6 32 0 72 -22 58
-32 -23 -14 -88 -10 -88 7 0 10 -10 15 -34 15 -27 0 -35 5 -40 24 -3 14 -13
32 -22 40 -14 15 -14 16 1 16 10 0 15 7 13 18 -2 9 -9 17 -16 17 -7 0 -16 5
-20 11 -9 15 -79 37 -91 29 -6 -3 -34 10 -62 30 -55 38 -79 44 -79 20 0 -8 -8
-15 -17 -15 -19 1 -64 30 -46 30 19 0 2 38 -19 43 -16 5 -18 11 -13 40 8 39
-1 45 -72 53 -38 5 -43 3 -43 -15 0 -17 6 -21 30 -21 17 0 30 -4 30 -10 0 -5
-13 -10 -30 -10 -16 0 -30 -4 -30 -10 0 -5 14 -10 30 -10 27 0 30 -3 30 -30
l0 -30 -70 0 -69 0 -3 78 c-3 76 -3 77 -30 80 -18 2 -28 9 -28 20 0 10 -13 23
-30 30 -28 13 -30 17 -30 73 0 33 -4 59 -10 59 -6 0 -10 31 -11 73 0 39 -3 66
-6 59 -4 -9 -10 -7 -22 7 -10 12 -21 18 -25 14 -3 -3 -6 -42 -6 -85 0 -61 -4
-83 -17 -96 -12 -12 -18 -13 -21 -4 -3 9 -69 12 -283 12 -272 0 -279 0 -279
20 0 17 7 20 40 20 22 0 40 5 40 10 0 6 87 10 240 10 l240 0 0 30 0 30 -250 0
c-216 0 -250 2 -250 15 0 8 -4 15 -10 15 -5 0 -10 -7 -10 -15 0 -11 -11 -15
-40 -15 -40 0 -93 -34 -67 -43 7 -2 9 -8 4 -12 -4 -5 -13 -3 -19 3 -18 18 -42
15 -68 -8 l-23 -20 46 0 c40 0 47 -3 47 -20 0 -18 -7 -20 -80 -20 -71 0 -102
10 -67 23 6 2 9 7 6 11 -3 3 -16 -4 -28 -15 -21 -20 -30 -21 -101 -15 -73 7
-80 6 -101 -15 -19 -19 -26 -21 -51 -11 -16 6 -28 6 -28 1 0 -5 -3 -8 -7 -8
-20 3 -26 -2 -13 -11 13 -9 13 -11 0 -20 -8 -5 -27 -10 -42 -10 -15 0 -30 -4
-33 -10 -4 -6 8 -10 29 -10 29 0 36 -4 36 -20 0 -17 -7 -20 -44 -20 -24 0 -51
-3 -60 -6 -29 -11 -16 -24 24 -24 22 0 40 5 40 10 0 6 13 10 28 10 16 0 34 8
42 20 20 28 30 25 30 -10 0 -28 -2 -30 -40 -30 -22 0 -40 -4 -40 -10 0 -5 -22
-10 -50 -10 -27 0 -50 5 -50 10 0 6 -22 10 -50 10 -43 0 -50 3 -50 19 0 11 -6
21 -12 24 -9 3 -7 9 6 19 16 13 17 16 3 21 -8 3 -25 3 -36 0 -17 -4 -19 -8
-10 -19 9 -11 7 -14 -12 -15 -13 0 -18 -3 -11 -6 19 -7 15 -19 -18 -51 -16
-17 -30 -35 -30 -41 0 -7 -27 -11 -70 -11 -55 0 -70 -3 -70 -15 0 -10 -17 -15
-67 -18 l-68 -3 68 -2 c37 -1 67 -6 67 -10 0 -11 -353 -37 -376 -28 -10 4 -37
1 -61 -6 -35 -10 -43 -17 -43 -37 l0 -24 -227 4 c-126 3 -198 3 -160 2 67 -4
67 -4 67 -33 0 -23 5 -30 20 -30 16 0 20 -7 20 -30 0 -23 -4 -30 -20 -30 -17
0 -20 -7 -20 -40 l0 -40 -40 0 c-22 0 -40 5 -40 10 0 15 -70 12 -86 -4 -8 -8
-14 -31 -14 -50 l0 -36 -70 0 -70 0 0 117 0 116 -100 -6 c-61 -4 -100 -2 -100
3 0 6 -34 10 -75 10 -43 0 -84 5 -95 13 -17 10 -22 9 -30 -3 -7 -12 -14 -12
-43 -2 -45 16 -79 15 -113 -3 -33 -17 -53 -19 -73 -6 -20 13 6 38 45 43 16 2
-63 4 -176 4 -180 1 -192 0 -97 -7 60 -4 111 -10 115 -13 5 -6 -175 -11 -241
-7 -37 2 -68 -15 -61 -34 4 -9 19 -15 40 -15 30 0 34 -3 34 -25 l0 -25 -125 0
c-77 0 -125 -4 -125 -10 0 -5 23 -10 50 -10 49 0 50 -1 50 -30 0 -28 -2 -30
-40 -30 l-40 0 0 -40 0 -40 -40 0 -40 0 0 -80 0 -80 -80 0 -80 0 0 76 c0 96 8
104 94 104 l66 0 0 65 0 65 -80 0 -80 0 0 -35 c0 -34 -1 -35 -40 -35 -36 0
-40 3 -40 25 0 20 -5 25 -25 25 -14 0 -25 5 -25 10 0 6 -12 10 -27 10 -23 0
-25 -2 -13 -11 11 -8 4 -9 -27 -6 -37 4 -43 2 -43 -13 0 -14 11 -20 41 -25 22
-4 39 -8 37 -10 -10 -9 -108 -13 -113 -5 -3 6 2 10 12 11 16 0 16 1 -2 8 -15
6 -22 4 -27 -9 -4 -12 -14 -16 -36 -12 -24 3 -33 -2 -51 -26 -23 -32 -27 -52
-11 -52 6 0 10 -4 10 -10 0 -5 -9 -10 -20 -10 -11 0 -20 5 -20 10 0 15 -29 12
-46 -4 -8 -8 -14 -26 -14 -40 0 -26 -1 -26 -80 -26 l-80 0 0 40 c0 22 5 40 10
40 6 0 10 -4 10 -10 0 -5 23 -10 50 -10 28 0 50 5 50 10 0 6 9 10 19 10 30 0
35 29 6 40 -16 6 -23 15 -19 25 8 20 -54 21 -82 0 -10 -8 -35 -15 -54 -16 -19
-1 -27 -3 -17 -6 11 -3 16 -10 13 -20 -3 -8 -6 -17 -6 -19 0 -2 -11 -4 -24 -4
-14 0 -37 -5 -52 -10 -15 -6 -35 -8 -43 -4 -23 9 -81 10 -81 2 0 -13 -38 -9
-42 4 -6 16 -55 2 -55 -17 0 -8 4 -15 9 -15 4 0 8 -27 8 -60 0 -33 -4 -60 -10
-60 -5 0 -10 25 -10 55 0 43 -3 55 -16 55 -8 0 -12 5 -9 10 3 6 1 10 -4 10 -6
0 -11 -4 -11 -10 0 -5 -5 -10 -11 -10 -5 0 -7 5 -4 10 4 6 -8 10 -28 10 -48 0
-147 -21 -142 -30 9 -15 -58 -30 -130 -30 -64 0 -73 -2 -78 -20 -4 -15 0 -20
14 -20 10 0 19 -4 19 -10 0 -13 77 -13 82 -1 3 11 104 18 114 9 13 -14 -77
-28 -182 -28 -61 0 -135 -5 -165 -10 -37 -7 -55 -7 -57 0 -2 5 -15 10 -28 10
-13 0 -24 5 -24 11 0 6 -16 9 -37 7 -24 -2 -37 -8 -36 -16 4 -16 -24 -16 -30
1 -3 9 -9 7 -24 -6 -14 -12 -40 -18 -87 -20 -36 -1 -62 -3 -56 -5 19 -7 11
-49 -10 -55 -15 -4 -22 1 -26 20 -6 24 -9 25 -58 19 -28 -3 -62 -6 -76 -7
l-25 -1 25 -8 c21 -7 18 -8 -20 -10 -25 -2 -35 -5 -22 -7 49 -10 11 -33 -60
-37 -21 -1 -38 2 -38 6 0 4 -7 8 -15 8 -9 0 -12 6 -9 15 5 12 -2 15 -29 15
-20 0 -38 -4 -41 -8 -7 -12 -69 -2 -78 12 -5 8 -8 7 -8 -1 0 -7 -9 -13 -19
-13 -11 0 -23 -9 -26 -20 -6 -18 -15 -20 -96 -20 -58 0 -88 4 -84 10 4 6 -13
10 -44 10 -38 0 -51 -4 -51 -15 0 -8 -10 -21 -23 -30 -31 -20 -205 -23 -219
-3 -7 10 -11 10 -15 0 -6 -15 -62 -16 -136 -1 -46 10 -60 9 -73 -2 -13 -11
-61 -15 -198 -16 -100 -1 -219 -3 -266 -4 l-85 -3 70 -5 c70 -6 70 -6 45 -23
-18 -14 -44 -18 -102 -18 -70 0 -100 11 -65 23 29 10 -3 15 -48 8 -28 -5 -44
-9 -36 -10 8 0 11 -4 8 -7 -4 -4 -13 -1 -22 6 -18 15 -85 5 -85 -13 0 -8 -3
-8 -8 -2 -7 10 -72 9 -447 -10 -71 -4 -161 -11 -200 -15 -38 -5 -124 -11 -190
-14 -66 -2 -228 -9 -360 -16 -230 -11 -567 -12 -800 -4 -60 3 -146 5 -190 6
-114 2 -388 -13 -400 -22 -5 -4 -102 -13 -215 -19 -113 -7 -232 -16 -265 -20
-33 -5 -89 -9 -125 -10 -36 -1 -114 -6 -175 -12 -87 -8 -1078 -26 -1547 -29
l-88 0 0 -410 0 -410 9218 1 c5069 0 9210 3 9202 6 -8 3 -17 9 -20 13 -11 14
-163 110 -176 110 -7 0 -17 7 -21 15 -5 8 -18 16 -30 18 -11 1 -28 9 -37 17
-9 7 -40 24 -69 37 -28 13 -54 28 -57 32 -3 5 -59 36 -125 70 -66 33 -145 75
-175 92 -30 17 -201 105 -380 196 -179 90 -345 177 -370 193 -84 53 -129 78
-167 90 -21 7 -42 16 -48 20 -5 4 -21 10 -35 13 -14 4 -34 14 -46 24 -24 22
-39 27 -82 27 -19 1 -34 7 -37 16 -5 16 -114 70 -140 70 -8 0 -15 5 -15 10 0
6 -10 10 -22 10 -13 0 -43 11 -67 25 -23 14 -51 25 -61 25 -10 0 -23 6 -29 14
-7 8 -26 18 -42 21 -16 4 -35 12 -42 18 -29 28 -114 66 -134 61 -15 -4 -30 2
-46 18 -13 13 -29 22 -36 20 -7 -2 -21 5 -32 17 -11 12 -30 21 -43 21 -13 0
-35 9 -48 20 -14 10 -29 16 -33 12 -5 -4 -5 -1 -1 6 5 9 1 15 -13 19 -12 3
-21 10 -21 15 0 6 -6 5 -15 -2 -12 -10 -24 -6 -65 19 -28 17 -53 31 -56 31 -3
0 -21 7 -40 15 -19 8 -50 22 -69 30 -19 9 -35 20 -35 24 0 5 -15 11 -32 14
-71 12 -144 30 -160 38 -24 12 -28 11 -28 -6 0 -8 -5 -15 -11 -15 -7 0 -9 10
-7 25 4 18 0 26 -13 30 -11 4 -23 3 -29 0 -5 -3 -10 1 -10 9 0 8 -9 20 -20 26
-16 9 -24 7 -38 -6 -16 -16 -17 -16 -20 -1 -2 9 -14 20 -28 23 -13 3 -21 11
-17 17 4 7 -6 8 -30 4 -21 -3 -37 -2 -37 4 0 5 5 9 12 9 9 0 9 3 0 12 -6 6
-33 11 -59 12 -31 1 -55 7 -67 18 -22 20 -46 24 -46 7 0 -5 4 -8 9 -5 10 7 23
-33 14 -47 -7 -12 -73 1 -91 19 -12 13 -12 17 7 33 12 10 21 22 21 28 0 11
-114 77 -162 92 -21 7 -38 17 -38 23 0 6 -15 7 -40 3 -34 -6 -40 -4 -40 10 0
11 -5 15 -16 11 -8 -3 -12 -2 -9 3 7 13 -11 23 -46 25 -17 1 -34 8 -39 16 -7
11 -11 10 -25 -3 -9 -10 -20 -17 -23 -17 -4 0 -13 -13 -20 -30 -13 -28 -42
-42 -42 -21 0 5 -15 15 -34 22 -25 9 -32 17 -28 31 2 10 8 18 13 18 5 0 9 8 9
18 0 20 -38 42 -70 42 -11 0 -20 6 -20 13 0 9 -2 9 -8 -1 -11 -16 -72 4 -72
24 0 8 -10 14 -25 14 -14 0 -25 4 -25 9 0 9 -52 22 -59 15 -2 -2 4 -13 14 -24
18 -19 17 -20 -6 -20 -35 0 -69 11 -69 22 0 5 3 7 8 5 4 -2 14 4 24 14 15 16
14 17 -15 22 -19 2 -37 -1 -45 -9 -18 -18 -21 -18 -48 9 -78 76 -73 72 -94 59
-11 -6 -33 -12 -49 -12 -23 0 -30 5 -34 29 -4 19 -18 36 -42 50 -44 26 -45 26
-45 1z m-1700 -550 l0 -130 -160 0 c-100 0 -160 -4 -160 -10 0 -5 -13 -10 -30
-10 -16 0 -30 5 -30 10 0 6 14 10 30 10 l30 0 0 70 0 70 80 0 c73 0 80 2 80
20 0 13 -7 20 -20 20 -24 0 -26 25 -3 48 12 12 18 13 21 4 6 -19 22 -14 22 8
0 18 7 20 70 20 l70 0 0 -130z m160 110 c0 -17 7 -20 40 -20 l40 0 0 -40 0
-40 -100 0 -100 0 0 60 0 60 60 0 c53 0 60 -2 60 -20z m320 -180 l0 -80 -80 0
-80 0 0 80 0 80 80 0 80 0 0 -80z m-1120 20 c0 -17 7 -20 50 -20 l50 0 0 -40
c0 -33 3 -40 20 -40 17 0 20 -7 20 -40 0 -22 5 -40 10 -40 6 0 10 14 10 30 l0
30 80 0 c73 0 80 -2 80 -20 0 -16 7 -20 30 -20 23 0 30 -4 30 -20 0 -16 -7
-20 -30 -20 -27 0 -30 -3 -30 -30 l0 -30 -320 0 -320 0 0 39 c0 28 5 41 18 46
9 3 81 3 160 -1 l142 -7 0 42 c0 22 -4 41 -10 41 -5 0 -10 12 -10 26 0 38 -22
54 -74 54 -39 0 -46 3 -46 20 0 18 7 20 70 20 63 0 70 -2 70 -20z"/>
<path d="M14663 2163 c-24 -2 -43 -8 -43 -14 0 -5 -27 -9 -60 -9 -33 0 -60 -4
-60 -10 0 -5 -4 -10 -10 -10 -5 0 -10 9 -10 20 0 17 -7 20 -49 20 -35 0 -51
-4 -55 -16 -8 -22 -8 -23 12 -24 9 0 33 -2 52 -3 19 -1 39 -6 43 -12 6 -7 10
-6 14 3 7 18 41 15 45 -4 3 -19 83 -30 93 -14 3 6 23 10 44 10 37 0 39 2 43
35 2 21 0 34 -7 33 -5 -1 -29 -3 -52 -5z"/>
<path d="M14954 1879 c-5 -8 1 -10 21 -9 3 1 13 -6 21 -15 13 -13 42 -20 67
-16 4 0 7 -3 7 -9 0 -5 5 -10 10 -10 6 0 10 6 10 14 0 9 8 12 26 8 14 -2 23
-10 20 -17 -9 -24 97 -87 134 -80 27 5 50 -4 50 -20 0 -13 43 -25 92 -25 24 0
28 -3 24 -18 -5 -14 0 -18 25 -20 17 -1 39 -7 49 -12 10 -6 39 -10 64 -10 35
0 46 4 46 16 0 13 10 14 60 10 36 -3 60 -1 60 4 0 6 32 10 70 10 40 0 70 4 70
10 0 6 -7 10 -15 10 -8 0 -15 9 -15 20 0 15 7 20 25 20 14 0 25 -4 25 -10 0
-5 9 -10 20 -10 11 0 20 -5 20 -11 0 -6 8 -8 19 -4 10 3 25 0 32 -7 17 -16
286 -22 364 -9 40 7 43 9 18 10 -26 1 -33 5 -33 21 0 11 6 20 13 21 17 1 -30
15 -81 23 -29 4 -41 3 -37 -4 6 -9 0 -11 -22 -9 -5 0 -7 7 -5 16 3 13 -4 15
-42 11 -26 -3 -49 -1 -52 4 -3 5 -28 7 -56 4 -36 -3 -55 -1 -65 10 -20 20
-113 19 -113 -1 0 -8 -7 -15 -15 -15 -14 0 -17 5 -19 40 -1 18 -86 33 -159 28
-26 -2 -47 0 -47 5 0 4 -3 6 -7 6 -5 -1 -12 -1 -18 0 -36 7 -251 -2 -255 -10
-4 -6 -60 -6 -151 0 -79 5 -146 5 -149 1 -6 -10 -50 6 -50 19 0 12 -49 21 -56
10z"/>
<path d="M18635 1719 c-72 -7 -958 -12 -1135 -6 -25 1 -72 -2 -105 -6 -33 -4
-132 -14 -220 -22 -88 -7 -218 -19 -290 -26 -71 -7 -159 -13 -195 -14 -377
-10 -556 -19 -561 -26 -3 -5 -52 -9 -110 -8 -57 0 -108 0 -114 -2 -10 -2 -38
-3 -166 -7 -62 -2 -78 -5 -83 -19 -5 -11 0 -22 11 -31 10 -7 17 -18 15 -23 -1
-5 6 -10 15 -11 32 -2 37 -4 91 -27 28 -13 52 -29 52 -36 0 -12 54 -32 73 -27
4 1 7 -4 7 -11 0 -6 49 -34 110 -60 60 -27 118 -57 129 -66 11 -9 53 -28 93
-40 94 -30 157 -61 169 -83 5 -10 15 -18 21 -18 15 0 115 -48 120 -57 3 -8 33
-24 189 -97 53 -25 101 -52 109 -60 7 -9 18 -16 24 -16 6 0 47 -19 91 -41 80
-41 81 -42 186 -41 58 1 118 6 132 11 15 6 66 13 114 16 49 3 162 10 253 15
91 6 176 12 190 15 33 6 309 42 390 51 19 2 118 11 220 19 102 8 212 20 245
25 98 17 334 39 418 40 l77 0 0 345 0 345 -179 0 c-98 0 -205 2 -237 4 -32 2
-99 0 -149 -5z"/>
<path d="M18470 729 c-146 -4 -278 -11 -295 -14 -16 -4 -179 -8 -362 -9 -182
0 -329 -4 -326 -8 2 -5 15 -8 29 -8 14 0 23 -4 19 -9 -3 -5 20 -13 50 -16 30
-4 55 -11 55 -15 0 -4 23 -10 52 -13 28 -4 56 -11 62 -17 5 -5 32 -10 58 -10
26 0 48 -3 48 -8 0 -4 26 -13 58 -20 31 -7 84 -19 117 -27 33 -8 128 -30 210
-50 83 -20 166 -40 185 -45 19 -4 78 -13 130 -20 52 -6 131 -17 175 -25 140
-25 277 -44 373 -50 l92 -6 0 190 0 191 -232 -2 c-128 -1 -352 -5 -498 -9z"/>
<path d="M17321 676 c5 -6 109 -60 309 -162 85 -43 162 -86 172 -95 10 -9 67
-42 126 -74 59 -32 109 -62 110 -67 2 -4 7 -8 12 -8 10 0 128 -68 150 -87 9
-7 38 -24 65 -39 28 -14 59 -34 70 -44 11 -10 46 -32 77 -50 32 -17 61 -36 64
-41 3 -5 161 -9 365 -9 l359 0 0 144 0 145 -52 10 c-29 5 -141 21 -248 36
-237 31 -565 84 -594 95 -11 4 -57 15 -101 25 -44 9 -89 21 -100 25 -11 5 -36
11 -55 13 -19 3 -91 19 -160 36 -186 45 -210 50 -273 57 -37 5 -54 10 -45 15
8 6 1 9 -22 9 -19 0 -55 9 -79 20 -24 11 -49 20 -56 20 -7 0 -26 7 -41 15 -26
14 -63 21 -53 11z"/>
</g>
</svg>
